<svg width="467" height="490" viewBox="0 0 467 490" fill="#D1D1D1" xmlns="http://www.w3.org/2000/svg">
<path d="M84.6047 3.06329C81.2047 4.76331 77.8047 7.56329 75.8047 10.2633C72.5047 14.6633 72.4047 14.9633 72.8047 23.3633C73.1047 30.9633 73.5047 32.5633 76.4047 37.3633C81.0047 44.9633 86.4047 48.6633 93.7047 49.1633C102.805 49.8633 109.905 45.3633 113.905 36.4633C118.705 25.6633 110.805 14.2633 98.4047 14.0633C92.5047 13.9633 89.0047 16.2633 85.7047 22.4633C82.7047 28.0633 83.4047 33.2633 87.6047 37.5633C92.8047 42.7633 102.605 40.4633 102.605 34.0633C102.605 30.6633 99.0047 27.6633 96.8047 29.0633C94.0047 30.7633 94.8047 32.8633 98.1047 32.9633C100.505 32.9633 101.005 33.3633 100.805 34.9633C99.7047 41.5633 89.0047 40.1633 86.6047 32.9633C85.1047 28.3633 86.2047 24.9633 90.2047 21.3633C95.2047 16.9633 101.305 17.0633 106.305 21.6633C109.405 24.5633 110.005 25.7633 110.305 30.4633C110.905 37.2633 109.705 40.4633 105.005 43.9633C98.0047 49.3633 86.3047 46.8633 79.9047 38.6633C75.5047 32.9633 74.3047 29.1633 74.8047 22.1633C75.3047 14.4633 78.2047 9.56329 84.4047 6.26331C90.6047 2.86331 103.105 2.86331 109.605 6.26331C116.005 9.6633 121.305 15.4633 125.005 23.2633C127.905 29.4633 128.105 30.5633 128.005 40.3633C127.905 48.9633 127.405 52.1633 125.305 58.2633C121.805 67.8633 115.805 78.4633 113.505 79.0633C112.405 79.3633 111.605 80.2633 111.605 81.0633C111.605 83.4633 106.505 90.0633 93.7047 104.363C79.0047 120.663 73.9047 129.763 72.6047 141.463C72.1047 145.563 71.9047 148.963 72.1047 149.163C72.3047 149.363 73.0047 146.863 73.6047 143.663C76.5047 129.763 81.4047 121.363 97.6047 102.863C109.405 89.3633 110.005 88.6633 112.105 85.8633C113.605 83.8633 113.605 83.8633 115.405 86.2633C116.305 87.6633 119.205 90.8633 121.705 93.4633L126.405 98.1633L119.805 100.963C104.505 107.463 91.0047 119.263 84.2047 132.263C78.9047 142.363 77.2047 151.363 77.9047 166.063C78.2047 172.863 78.2047 178.363 78.1047 178.363C77.9047 178.363 76.1047 176.063 74.1047 173.363C69.8047 167.463 64.9047 164.363 64.0047 166.863C63.7047 167.663 63.6047 170.363 63.8047 172.863C64.0047 175.363 63.9047 177.363 63.5047 177.363C63.2047 177.363 61.9047 176.263 60.6047 174.863C58.5047 172.563 47.7047 168.363 44.1047 168.363C42.0047 168.363 39.7047 171.163 40.2047 173.163C40.7047 174.663 40.2047 174.863 36.7047 174.563C28.9047 173.763 19.1047 180.763 14.4047 190.363C11.1047 197.263 11.3047 210.063 14.9047 216.963C19.6047 226.163 27.4047 230.563 35.2047 228.463C40.9047 226.963 47.4047 221.963 49.3047 217.563C50.3047 215.563 51.1047 213.663 51.3047 213.463C51.4047 213.363 52.7047 214.363 54.2047 215.763C58.3047 219.463 61.9047 219.963 66.9047 217.363C71.7047 214.863 72.6047 213.763 72.6047 210.563C72.6047 208.063 67.5047 204.363 63.9047 204.363C60.2047 204.363 60.8047 208.263 64.6047 208.963C70.0047 210.063 67.9047 215.363 62.0047 215.363C54.8047 215.363 51.9047 205.263 57.6047 199.863C64.2047 193.463 75.0047 197.463 88.3047 211.163C95.9047 218.863 98.8047 223.463 97.3047 225.063C96.9047 225.363 95.1047 224.263 93.2047 222.563C86.8047 216.963 82.9047 217.163 64.8047 224.463C62.3047 225.463 60.9047 225.563 58.5047 224.663C55.8047 223.563 55.6047 223.663 56.8047 225.063C59.4047 228.263 64.3047 229.363 75.5047 229.363C89.0047 229.363 96.6047 230.863 96.6047 233.563C96.6047 234.663 97.1047 235.163 97.6047 234.863C98.2047 234.463 99.3047 234.763 100.105 235.363C102.005 236.963 102.005 236.163 100.105 231.663C99.3047 229.763 98.6047 227.363 98.7047 226.463C98.8047 223.963 101.405 230.263 102.505 235.863C103.805 242.763 104.705 262.063 103.505 260.263C101.905 257.663 102.605 260.463 104.605 264.363C105.705 266.563 106.605 268.463 106.605 268.763C106.605 269.063 104.105 268.363 101.105 267.363C87.7047 262.763 72.7047 262.863 64.0047 267.663C59.6047 270.163 55.6047 276.863 55.6047 281.763C55.6047 291.563 63.9047 304.163 71.6047 306.163C77.5047 307.663 83.1047 305.963 86.4047 301.563C93.9047 291.763 87.0047 270.963 78.1047 276.763C73.2047 279.963 76.1047 285.763 81.6047 283.663C85.4047 282.263 86.5047 283.563 87.2047 289.963C88.2047 299.363 81.3047 306.463 73.4047 304.363C67.5047 302.663 59.7047 293.163 58.3047 285.763C55.5047 271.163 70.6047 263.263 92.4047 267.863C106.005 270.663 106.805 271.263 112.205 282.163C114.905 287.463 117.105 292.263 117.105 292.863C117.105 293.363 119.505 296.263 122.405 299.263C125.205 302.263 127.605 305.063 127.605 305.463C127.605 305.863 126.705 306.563 125.605 306.863C124.505 307.163 123.605 308.063 123.605 308.863C123.605 309.563 122.805 310.963 121.905 311.963C120.205 313.663 120.305 313.663 123.505 313.063C125.405 312.663 127.705 311.663 128.605 310.863C129.605 309.963 131.105 309.563 132.005 309.963C134.005 310.763 134.005 310.863 132.005 313.963C130.605 315.963 130.505 316.963 131.505 318.963C132.105 320.363 132.305 322.063 132.005 322.663C131.605 323.363 132.105 323.163 133.005 322.263C134.005 321.363 134.905 319.063 135.005 317.163C135.205 315.263 135.605 313.163 136.005 312.463C136.405 311.763 135.805 310.463 134.405 309.363C133.105 308.263 132.705 307.463 133.405 307.363C135.405 307.363 133.705 305.363 131.705 305.363C130.105 305.363 124.605 300.563 124.605 299.063C124.605 297.763 128.005 298.363 132.505 300.363C134.905 301.463 137.105 302.163 137.405 301.863C138.405 300.963 132.605 294.563 129.205 292.963C126.505 291.763 125.205 291.563 123.005 292.363C120.005 293.563 119.905 293.563 116.405 286.863C114.405 283.163 113.105 276.363 114.305 276.363C114.605 276.363 117.005 277.963 119.605 279.863C126.605 285.063 135.505 295.063 138.205 300.863L140.605 305.863V300.863C140.605 298.063 141.505 293.963 142.605 291.563C143.605 289.263 144.205 287.363 143.705 287.363C142.605 287.363 140.505 291.563 139.705 295.363L139.105 298.563L133.805 291.763C129.005 285.563 119.505 276.363 115.205 273.863C113.605 272.963 113.705 272.363 116.505 266.963C119.905 260.463 120.305 258.363 118.105 258.363C116.205 258.363 112.805 263.763 112.005 268.163C111.005 273.163 109.305 271.463 107.305 263.763C104.705 253.663 104.805 239.763 107.505 230.063C109.705 221.863 113.105 214.263 114.405 214.563C114.805 214.663 117.605 212.363 120.605 209.463C126.605 203.663 132.205 200.363 136.105 200.363C141.705 200.363 148.605 210.763 148.605 219.263C148.605 225.963 144.005 232.363 139.105 232.363C137.305 232.363 137.005 231.863 137.405 229.563C137.905 226.063 135.305 223.463 132.805 225.063C128.305 227.863 131.505 234.363 137.405 234.363C142.605 234.363 146.205 231.663 148.705 225.963C152.205 217.863 149.505 207.563 142.405 202.063L139.205 199.463L141.905 198.863C148.305 197.263 159.005 200.463 164.405 205.663C169.905 210.863 172.005 215.863 172.005 223.863C172.105 236.063 165.405 245.363 156.405 245.363C152.005 245.363 147.105 243.163 146.205 240.863C145.205 238.163 145.505 234.863 146.905 233.463C147.905 232.363 147.805 232.163 146.605 232.563C143.805 233.463 143.005 238.063 145.005 241.863C149.105 249.363 162.305 249.363 168.105 241.763C172.605 235.863 174.605 230.363 174.605 223.563C174.605 212.463 169.705 204.763 159.205 199.363C152.905 196.163 152.305 196.063 144.005 196.663C139.205 196.963 135.105 197.563 134.705 198.063C134.405 198.563 132.505 199.663 130.605 200.363C128.705 201.163 125.305 203.363 123.105 205.163C120.005 207.863 120.105 207.663 123.705 204.263C140.705 188.063 169.305 186.363 189.905 200.163C201.705 208.063 206.605 216.463 206.605 228.863C206.605 241.563 200.805 248.863 190.805 248.863C186.205 248.863 185.105 248.463 183.005 246.063C181.305 244.063 180.605 243.663 180.605 244.863C180.605 245.763 181.905 247.863 183.505 249.463C186.105 251.963 187.205 252.363 192.105 252.363C204.605 252.363 211.205 243.963 210.405 229.063C209.005 200.063 169.005 180.063 138.305 192.963C134.905 194.463 129.605 195.763 126.605 196.063C117.505 196.763 112.305 198.963 107.205 204.163C99.5047 211.963 101.905 205.363 111.105 193.363C116.505 186.263 118.605 182.163 118.505 178.663C118.405 175.963 118.405 175.963 117.205 179.363C116.305 181.863 114.205 184.063 110.005 186.963C106.805 189.163 103.905 191.863 103.705 192.863C103.505 194.263 103.205 194.363 102.505 193.263C101.005 190.863 98.2047 193.663 97.6047 197.963C97.3047 200.163 97.5047 205.363 98.1047 209.663C99.9047 222.463 97.9047 221.563 90.6047 206.363C80.6047 185.863 76.8047 163.863 81.7047 155.363C82.8047 153.463 83.5047 152.663 83.2047 153.563C82.9047 154.463 82.5047 158.063 82.2047 161.563L81.6047 167.863L83.0047 160.763C85.1047 149.963 85.3047 149.563 90.9047 146.763C99.2047 142.563 101.505 140.563 102.705 136.263C104.205 131.563 103.505 130.563 100.405 132.763C98.0047 134.463 93.6047 134.963 93.6047 133.563C93.6047 131.963 99.2047 127.463 103.605 125.463C109.605 122.663 114.105 122.763 116.005 125.563C117.205 127.263 117.905 127.463 118.805 126.563C120.105 125.263 119.605 124.363 117.305 123.963C116.505 123.863 115.205 123.263 114.505 122.663C111.805 120.563 108.705 120.263 104.905 121.863C99.3047 124.263 94.3047 127.963 92.3047 131.263C91.3047 132.863 89.8047 134.463 88.8047 134.763C86.2047 135.663 82.4047 141.863 81.0047 147.663C80.3047 150.563 79.7047 151.963 79.7047 150.863C79.5047 145.063 84.9047 132.763 91.4047 124.063C96.5047 117.263 109.005 106.963 115.605 104.163C120.005 102.163 133.505 97.3633 134.405 97.3633C134.705 97.3633 133.405 98.3633 131.605 99.5633C127.005 102.763 124.505 108.163 123.905 116.163C123.405 121.963 123.605 122.663 124.705 121.163C125.505 120.163 128.805 118.663 132.105 117.863C141.605 115.363 144.805 110.763 142.805 102.363L141.905 98.8633L140.605 103.163C139.305 107.263 135.605 111.363 133.205 111.363C132.605 111.363 133.405 110.363 135.005 109.163C137.805 107.063 140.605 101.963 140.605 98.8633C140.605 97.8633 139.705 97.3633 137.905 97.3633C135.405 97.3633 135.305 97.3633 137.105 95.3633C138.905 93.3633 138.805 93.3633 135.705 93.3633C131.805 93.3633 127.805 91.3633 125.105 88.2633C123.105 85.8633 123.105 85.8633 125.105 87.4633C130.105 91.5633 139.605 94.1633 139.605 91.4633C139.605 90.9633 137.605 88.7633 135.005 86.5633C130.705 82.7633 123.405 79.3633 119.405 79.3633C118.405 79.3633 117.605 79.1633 117.605 78.8633C117.605 78.5633 119.305 75.2633 121.405 71.5633C129.505 57.1633 130.105 55.1633 130.105 41.3633C130.105 29.2633 130.005 28.6633 126.705 21.5633C120.805 9.06329 109.705 1.26331 96.6047 0.563293C91.0047 0.263306 89.3047 0.6633 84.6047 3.06329ZM49.8047 184.463C52.7047 185.063 56.9047 186.163 59.1047 186.963C63.1047 188.463 78.9047 198.363 78.3047 198.963C78.1047 199.163 75.8047 198.163 73.1047 196.863C66.4047 193.463 59.8047 193.463 55.7047 196.863C54.1047 198.263 52.4047 200.363 52.0047 201.563C51.5047 203.163 51.2047 203.363 50.5047 202.263C49.9047 201.363 49.6047 203.063 49.6047 206.763C49.6047 215.663 45.3047 221.163 36.3047 223.563C32.5047 224.563 31.1047 224.463 27.3047 222.963C22.1047 220.963 17.3047 214.863 16.2047 208.763C15.2047 203.663 17.9047 195.663 22.3047 190.563C27.9047 184.063 37.5047 181.963 49.8047 184.463ZM122.705 202.363C119.805 205.163 117.805 207.863 118.105 208.363C118.505 208.963 118.205 209.263 117.505 209.163C116.905 208.963 116.105 209.463 115.805 210.263C115.505 211.163 115.805 211.363 116.605 210.863C117.505 210.363 117.705 210.463 117.205 211.263C116.805 211.863 116.105 212.163 115.605 211.863C113.705 210.663 108.705 220.263 105.605 230.863L103.805 236.863L103.105 232.863C102.605 230.663 101.705 227.363 100.905 225.563C99.7047 222.663 99.7047 221.463 101.105 216.663C103.805 207.463 111.705 200.363 121.605 198.363C127.905 197.063 128.005 197.263 122.705 202.363ZM113.005 278.363L113.705 280.863L112.205 278.363C110.505 275.563 110.105 273.363 111.505 274.863C112.005 275.463 112.705 276.963 113.005 278.363Z"/>
<path d="M47.6047 196.863C47.6047 197.363 48.1047 198.563 48.6047 199.363C49.1047 200.163 49.6047 200.363 49.6047 199.863C49.6047 199.263 49.1047 198.163 48.6047 197.363C48.1047 196.563 47.6047 196.263 47.6047 196.863Z"/>
<path d="M100.705 221.963C100.705 223.063 101.005 223.363 101.305 222.563C101.605 221.863 101.505 220.963 101.205 220.663C100.905 220.263 100.605 220.863 100.705 221.963Z"/>
<path d="M82.0047 65.0634C82.3047 67.8634 84.1047 71.9634 87.5047 77.5634C93.1047 86.7634 94.5047 92.4634 92.7047 98.8634C90.9047 105.363 92.1047 103.863 95.5047 95.1634C99.2047 85.8634 100.105 81.5634 99.2047 77.8634C98.6047 75.5634 98.1047 75.2634 96.1047 75.7634C94.3047 76.2634 93.6047 75.9634 93.6047 74.8634C93.6047 74.0634 91.9047 72.5634 89.8047 71.4634C85.3047 69.1634 83.8047 67.5634 82.5047 63.6634C81.7047 61.2634 81.7047 61.3634 82.0047 65.0634Z"/>
<path d="M132.205 63.7633C131.405 66.5633 131.505 71.3633 132.205 75.2633C132.805 78.3633 140.905 88.3633 142.705 88.3633C144.405 88.3633 143.605 81.8633 141.505 77.8633L139.405 73.8633L141.705 76.0633C143.205 77.5633 144.205 79.9633 144.605 83.0633L145.205 87.8633L146.905 84.6633C149.505 79.7633 149.105 76.5633 145.205 72.9633C132.605 61.3633 132.805 61.4633 132.205 63.7633Z"/>
<path d="M180.105 71.3633C180.405 71.8633 181.105 72.3633 181.705 72.3633C182.205 72.3633 182.605 71.8633 182.605 71.3633C182.605 70.7633 181.905 70.3633 181.005 70.3633C180.205 70.3633 179.805 70.7633 180.105 71.3633Z"/>
<path d="M68.8047 72.9634C63.8047 76.4634 62.1047 84.2634 65.5047 88.4634C68.8047 92.5634 78.6047 90.3634 78.6047 85.6634C78.6047 84.6634 77.6047 84.9634 75.5047 86.8634C71.1047 90.4634 66.5047 90.0634 65.4047 85.8634C64.1047 80.9634 66.2047 75.5634 70.0047 73.7634C72.9047 72.3634 73.6047 72.3634 76.8047 73.6634C86.1047 77.5634 92.1047 94.9634 88.2047 106.863C87.9047 107.963 88.3047 107.263 89.2047 105.363C91.5047 100.463 90.6047 90.3634 87.3047 83.0634C83.1047 73.7634 74.4047 68.9634 68.8047 72.9634Z"/>
<path d="M168.405 73.2633C161.105 75.6633 153.205 81.3633 150.105 86.7633C148.705 89.1633 147.605 91.2633 147.605 91.5633C147.605 92.3633 153.705 90.9633 156.305 89.5633C157.405 88.8633 160.105 86.4633 162.105 84.1633L165.805 79.8633L162.505 84.7633C160.105 88.1633 157.905 90.0633 154.905 91.2633C148.705 93.6633 148.705 94.3633 154.905 94.3633C161.905 94.3633 165.405 91.6633 169.805 82.9633C171.405 79.6633 174.005 75.6633 175.405 74.0633C177.705 71.6633 177.805 71.3633 176.005 71.4633C175.005 71.4633 171.505 72.2633 168.405 73.2633Z"/>
<path d="M107.105 80.3633C106.805 80.8633 107.205 81.3633 108.005 81.3633C108.905 81.3633 109.605 80.8633 109.605 80.3633C109.605 79.7633 109.205 79.3633 108.705 79.3633C108.105 79.3633 107.405 79.7633 107.105 80.3633Z"/>
<path d="M140.905 91.4633C139.105 93.2633 141.205 96.3633 144.205 96.3633C146.405 96.3633 146.705 95.9633 146.405 93.5633C146.105 90.5633 143.005 89.3633 140.905 91.4633Z"/>
<path d="M147.205 97.8633C145.205 103.063 148.105 109.863 153.105 111.963C155.005 112.763 159.405 113.363 162.805 113.363C166.905 113.363 169.905 113.863 171.405 114.963C174.605 117.163 174.305 114.963 170.405 108.363C166.405 101.863 160.305 97.7633 153.005 96.7633C148.705 96.2633 147.805 96.4633 147.205 97.8633ZM158.605 106.363C163.505 108.163 163.705 108.263 160.105 107.663C155.005 106.963 151.105 104.963 149.205 102.163C146.605 98.5633 147.405 98.0633 150.405 101.363C151.905 103.163 155.405 105.263 158.605 106.363Z"/>
<path d="M25.2046 119.663C26.3046 125.063 28.4046 128.063 31.7046 129.263C35.8046 130.663 35.6046 130.663 35.6046 128.463C35.6046 123.863 33.5046 120.663 29.0046 118.663L24.5046 116.563L25.2046 119.663Z"/>
<path d="M173.605 118.363C173.605 118.863 174.105 119.363 174.705 119.363C175.205 119.363 175.405 118.863 175.105 118.363C174.805 117.763 174.305 117.363 174.005 117.363C173.805 117.363 173.605 117.763 173.605 118.363Z"/>
<path d="M45.6047 130.663C45.6047 133.063 52.0047 141.363 53.8047 141.363C54.3047 141.363 53.5047 139.863 51.8047 137.963C50.1047 136.063 48.5047 133.163 48.1047 131.463C47.3047 127.863 45.6047 127.363 45.6047 130.663Z"/>
<path d="M36.6047 135.563C36.6047 136.163 38.3047 138.263 40.4047 140.363C43.3047 143.163 45.7047 144.463 51.0047 145.763C60.9047 148.263 65.3047 150.763 68.7047 156.063C70.3047 158.663 71.6047 161.463 71.6047 162.263C71.6047 163.063 71.9047 163.463 72.2047 163.063C73.2047 162.063 70.7047 155.763 67.6047 151.463C64.0047 146.563 59.2047 144.063 50.3047 142.363C45.0047 141.363 42.7047 140.363 40.0047 137.863C38.1047 136.063 36.6047 135.063 36.6047 135.563Z"/>
<path d="M119.105 135.663C109.305 138.163 97.5047 146.163 92.0047 154.163C83.9047 165.663 83.4047 187.563 90.7047 202.163C92.5047 205.563 94.1047 208.263 94.2047 208.063C94.4047 207.863 94.0047 205.163 93.4047 202.063C91.7047 194.263 93.3047 185.863 98.5047 174.563C100.805 169.663 102.605 164.963 102.605 164.063C102.605 162.463 100.505 161.863 96.3047 162.163C95.2047 162.263 94.6047 161.863 94.8047 161.163C95.7047 158.563 101.705 155.563 107.305 154.963C119.905 153.463 121.805 153.063 124.605 150.663C126.705 148.963 127.705 146.963 128.205 143.863C128.905 139.063 130.005 138.763 131.005 142.963C132.105 147.163 137.405 157.763 139.605 160.163C142.205 162.963 146.305 162.963 149.305 160.263C151.005 158.563 151.605 158.363 151.905 159.463C153.705 165.863 154.305 166.863 156.005 166.563C157.605 166.263 157.805 166.663 157.305 169.863C156.505 174.563 153.105 181.363 150.305 183.563C147.505 185.763 140.805 185.863 137.805 183.763C136.405 182.763 135.605 181.263 135.605 179.263C135.605 177.463 135.205 176.463 134.605 176.863C132.505 178.163 133.605 182.563 136.805 185.563C139.605 188.163 140.605 188.463 144.105 188.063C157.305 186.663 163.205 170.163 156.205 154.663C149.705 140.363 133.405 132.063 119.105 135.663Z"/>
<path d="M49.2047 152.463C45.8047 157.363 48.4047 160.263 53.0047 156.863C56.7047 154.063 61.2047 154.963 66.3047 159.563L71.0047 163.863L68.9047 160.363C66.0047 155.663 59.8047 151.363 54.9047 150.663C51.5047 150.263 50.6047 150.463 49.2047 152.463Z"/>
<path d="M286.105 208.563C286.005 212.463 285.205 215.263 283.105 219.163C281.505 222.163 280.205 226.063 280.205 227.963C280.205 230.663 279.905 231.263 278.705 230.763C271.605 227.763 260.205 228.063 249.805 231.663C245.605 233.163 234.905 239.663 236.305 239.963C236.705 240.063 238.805 240.463 240.805 240.863C243.705 241.263 246.605 243.463 254.005 250.363C259.205 255.263 264.705 259.563 266.105 259.963C267.605 260.363 271.305 260.363 274.305 260.063C280.805 259.363 280.305 260.363 272.605 263.363C265.905 266.063 252.005 267.163 245.905 265.463C240.505 263.963 235.505 259.863 237.505 258.463C238.505 257.863 238.505 257.463 237.605 256.863C235.505 255.563 234.305 257.863 235.805 260.263C242.205 270.763 269.505 269.963 284.105 258.763C286.605 256.863 288.605 255.563 288.605 255.763C288.605 256.063 286.805 258.863 284.605 262.163C277.305 273.163 271.505 289.363 271.705 297.863C271.805 300.063 272.005 300.963 272.205 299.863C272.405 298.763 273.105 295.363 273.705 292.363C275.005 285.863 279.805 273.063 282.405 269.063L284.305 266.363L283.805 271.663C283.205 278.763 285.605 283.363 293.605 290.263C301.205 296.863 303.605 300.563 303.605 305.863L303.705 309.863L305.805 307.363C306.905 305.963 309.605 301.263 311.705 296.863C316.105 287.763 317.505 278.463 315.805 269.563L314.905 264.363H317.605C319.105 264.363 321.405 263.463 322.805 262.463C326.905 259.163 333.405 257.063 337.105 257.663C341.405 258.363 341.505 257.463 337.705 250.863C333.705 243.963 328.605 239.363 323.805 238.263C319.205 237.263 311.305 238.463 306.705 240.863C305.005 241.663 303.505 242.363 303.205 242.363C302.505 242.363 303.305 238.163 305.105 233.363C306.405 229.763 306.505 228.163 305.605 224.463C304.105 218.363 299.605 212.263 293.505 207.863C286.105 202.563 286.105 202.563 286.105 208.563ZM298.005 215.363C301.105 218.863 301.605 220.063 301.605 224.363C301.605 229.663 299.605 234.563 295.305 239.763L292.905 242.763L289.305 240.463C285.605 238.163 281.605 232.763 281.605 230.063C281.605 229.163 282.505 226.963 283.605 225.163C284.705 223.363 285.605 221.063 285.605 220.063C285.605 219.163 286.005 218.363 286.505 218.363C287.005 218.363 287.605 217.463 287.905 216.363C288.205 214.963 288.905 214.563 290.105 214.963C291.205 215.463 291.905 214.963 292.305 213.463C293.105 210.563 293.805 210.763 298.005 215.363ZM279.705 234.663C293.505 244.463 296.505 247.763 292.005 247.963C290.905 248.063 287.605 248.863 284.705 249.863C278.105 252.063 269.805 251.463 263.505 248.463L259.105 246.263L262.405 249.263C267.405 253.563 276.205 254.663 284.105 251.863C289.505 249.863 289.805 250.063 285.305 252.463C275.205 257.763 266.705 255.563 255.305 244.463C251.305 240.763 247.405 237.463 246.605 237.163C245.505 236.863 245.905 236.163 248.005 234.863C252.405 231.963 259.505 230.363 267.205 230.663C273.705 230.863 274.905 231.263 279.705 234.663ZM325.205 243.963C327.105 244.863 329.505 246.863 330.605 248.363L332.605 251.163L330.505 251.663C328.905 252.063 328.505 252.763 328.905 254.263C329.305 255.863 328.905 256.363 327.505 256.363C326.505 256.363 325.605 256.763 325.605 257.363C325.605 257.863 325.005 258.363 324.305 258.363C323.605 258.363 321.305 259.263 319.205 260.463C313.805 263.363 309.805 262.363 305.205 257.363C303.205 255.163 301.605 252.763 301.605 252.063C301.605 249.163 313.705 242.463 318.905 242.363C320.505 242.363 323.305 243.063 325.205 243.963ZM299.705 252.563C300.405 254.263 302.505 257.963 304.405 260.663C309.205 267.663 312.605 275.263 312.605 279.163C312.605 281.163 313.005 282.263 313.605 281.863C314.205 281.563 314.605 281.863 314.605 282.663C314.605 285.063 311.805 293.363 310.205 295.863L308.605 298.263L300.305 289.563C290.005 278.863 287.705 273.763 289.305 265.963C290.305 261.163 296.305 249.363 297.705 249.363C298.105 249.363 298.905 250.763 299.705 252.563ZM314.505 269.763C315.105 272.263 315.605 275.463 315.505 277.063C315.505 278.863 314.705 277.263 313.605 272.863C311.405 264.663 311.305 264.063 312.505 264.763C313.005 265.063 313.905 267.363 314.505 269.763Z"/>
<path d="M132.605 205.363C121.905 208.763 113.605 217.863 109.005 231.263C105.905 239.963 106.005 243.463 109.105 236.063C110.405 232.863 112.905 228.363 114.605 226.063C117.605 221.863 124.805 216.363 127.105 216.363C130.305 216.363 138.705 212.863 140.805 210.663L143.105 208.163L140.705 206.263C138.205 204.263 136.605 204.063 132.605 205.363Z"/>
<path d="M79.0048 211.863C78.1048 214.063 79.3048 215.263 83.4048 215.963C85.4048 216.363 88.3048 217.263 89.8048 217.963C91.3048 218.763 92.8048 219.363 93.2048 219.363C94.4048 219.363 91.2048 216.063 87.2048 213.163C82.9048 210.063 79.8048 209.563 79.0048 211.863Z"/>
<path d="M115.605 231.063C109.105 238.363 106.105 250.463 108.405 259.863L109.405 263.863L109.505 258.863C109.705 250.563 111.305 246.763 117.505 240.063C126.105 230.863 127.305 227.363 121.605 227.363C119.605 227.363 117.905 228.463 115.605 231.063Z"/>
<path d="M78.1047 233.463C75.7047 240.963 79.2047 248.863 87.0047 253.263C89.9047 254.963 92.9047 257.063 93.6047 257.763C95.8047 260.563 97.6047 258.463 97.6047 252.963C97.5047 245.863 95.9047 243.663 88.0047 239.463C84.2047 237.463 80.6047 234.863 80.0047 233.463L78.8047 231.163L78.1047 233.463ZM93.4047 250.863C93.1047 251.163 92.1047 250.163 91.1047 248.663L89.4047 245.863L91.7047 248.063C92.9047 249.263 93.7047 250.563 93.4047 250.863Z"/>
<path d="M307.005 236.963C303.705 240.063 303.605 240.263 306.205 238.563C307.905 237.363 309.905 235.763 310.605 234.863C312.805 232.163 310.905 233.263 307.005 236.963Z"/>
<path d="M98.1047 241.963C98.5047 247.463 101.505 258.863 102.305 258.063C102.505 257.763 102.005 255.063 101.105 251.863C100.205 248.763 99.0047 244.063 98.5047 241.563L97.7047 236.863L98.1047 241.963Z"/>
<path d="M65.0047 240.963C63.3047 241.663 72.8047 251.063 75.9047 251.563C79.0047 252.163 79.2047 251.663 77.1047 248.963C76.3047 247.863 75.6047 246.263 75.6047 245.363C75.6047 241.763 69.4047 239.163 65.0047 240.963Z"/>
<path d="M158.905 251.963C152.705 254.663 149.305 261.363 147.705 273.863C147.205 277.763 146.405 281.763 146.005 282.863C145.305 284.663 145.405 284.763 147.105 283.363C148.205 282.463 148.705 282.363 148.205 283.063C147.105 284.963 148.905 284.663 154.905 281.963C162.505 278.663 163.805 276.063 164.505 263.763C164.905 257.463 165.605 253.063 166.505 252.063C167.705 250.563 167.505 250.363 165.005 250.463C163.405 250.463 160.705 251.163 158.905 251.963ZM157.305 270.563C157.005 271.363 156.705 271.063 156.705 269.963C156.605 268.863 156.905 268.263 157.205 268.663C157.505 268.963 157.605 269.863 157.305 270.563ZM155.805 275.063C155.205 276.063 153.605 277.963 152.105 279.363C149.605 281.563 149.705 281.363 152.705 277.263C156.105 272.663 157.705 271.563 155.805 275.063Z"/>
<path d="M78.8047 255.663C76.5047 256.863 74.6047 258.063 74.6047 258.363C74.6047 260.263 80.2047 261.363 86.8047 260.663L93.9047 260.063L91.0047 257.763C86.1047 253.763 83.6047 253.363 78.8047 255.663Z"/>
<path d="M160.605 288.963C160.605 289.263 161.905 290.763 163.505 292.363C166.705 295.563 167.605 298.963 167.605 307.363C167.605 317.163 168.505 319.463 174.405 325.063C177.405 327.963 181.905 331.763 184.505 333.463C190.205 337.263 188.105 336.763 171.305 329.763C164.305 326.863 156.405 322.863 153.705 320.963C148.205 316.863 141.605 309.963 141.605 308.163C141.605 307.563 141.305 307.363 140.905 307.663C140.605 308.063 142.005 310.963 144.205 314.063C146.305 317.263 148.105 320.263 148.105 320.663C148.105 321.163 149.205 322.163 150.605 322.863C153.005 324.163 152.905 324.163 148.905 323.663C145.405 323.163 144.605 323.463 143.605 325.363C142.205 327.963 141.905 327.663 148.105 329.563C153.205 331.163 155.605 330.563 155.605 327.763C155.605 326.963 156.005 326.363 156.505 326.363C157.405 326.363 184.605 338.063 185.205 338.663C185.405 338.863 181.605 338.963 176.805 338.963C154.905 339.163 139.605 352.963 139.605 372.763C139.605 381.263 141.905 387.363 147.405 393.463C151.705 398.263 151.905 398.863 151.705 403.663C151.405 410.063 153.305 414.763 158.005 419.263C161.105 422.263 162.405 422.763 167.405 423.163C174.205 423.663 178.305 421.963 181.505 417.463C184.705 412.963 184.005 413.063 179.705 417.563C176.205 421.363 175.405 421.763 169.905 422.163C164.305 422.563 163.705 422.363 160.205 419.363C158.205 417.563 155.805 414.763 155.005 413.263C153.405 410.163 153.105 400.363 154.605 400.363C155.105 400.363 158.005 400.963 160.905 401.763C166.405 403.263 171.005 402.863 175.205 400.563C177.005 399.663 177.705 399.863 179.305 401.663C180.405 402.863 181.905 404.863 182.505 406.063C184.205 409.363 185.105 408.963 187.505 403.863C190.005 398.663 190.205 393.563 188.105 390.763C184.705 386.263 188.205 386.863 193.405 391.763C202.805 400.463 204.705 415.463 199.105 434.563C192.305 457.163 174.505 477.563 155.305 484.863L149.105 487.163L157.105 486.763C166.905 486.263 179.405 483.363 189.005 479.363C205.205 472.563 222.205 458.163 228.805 445.663C229.905 443.563 231.405 440.963 232.105 439.863C232.805 438.763 234.405 434.463 235.705 430.363C237.005 426.263 238.705 422.263 239.305 421.563C240.005 420.863 240.605 419.763 240.605 419.163C240.605 418.563 240.905 418.363 241.205 418.663C241.605 419.063 241.205 420.363 240.405 421.563C238.905 423.963 236.405 430.363 237.105 430.363C237.305 430.363 238.805 428.163 240.505 425.363C247.705 413.663 262.005 403.363 271.105 403.363C275.705 403.363 283.405 405.663 288.405 408.663C294.105 412.063 297.505 421.163 295.205 426.763C294.105 429.463 292.905 430.463 290.005 431.263C285.405 432.563 281.305 430.863 280.805 427.563C280.505 425.763 280.105 425.563 278.505 426.363C276.205 427.663 276.105 430.163 278.405 432.963C284.105 440.063 297.605 438.263 301.205 429.963L302.505 426.863L302.605 430.163C302.605 431.963 303.305 434.763 304.005 436.263C306.005 440.063 312.005 445.163 315.405 445.963C316.905 446.363 319.705 448.063 321.605 449.763C336.805 463.463 347.905 467.963 359.405 464.963C367.305 462.963 373.905 459.063 378.605 453.563C384.205 446.963 383.605 446.263 377.505 452.363C370.805 459.163 363.205 462.663 354.305 463.163C347.905 463.563 339.105 462.063 338.105 460.363C337.805 459.963 339.505 460.063 341.905 460.563C351.705 462.763 362.705 459.063 371.805 450.363C374.705 447.563 377.405 445.363 377.705 445.363C378.105 445.363 379.805 444.163 381.505 442.763C383.505 441.163 384.605 440.663 384.605 441.563C384.705 444.463 386.705 439.163 388.005 432.663C388.805 428.863 389.405 426.963 389.505 428.363C389.705 431.863 395.105 454.863 397.105 460.763C401.605 473.763 410.105 481.363 420.105 481.263C422.905 481.263 426.505 480.663 428.105 479.863L431.105 478.363L426.605 478.863C423.905 479.163 420.005 478.763 416.905 477.863C406.005 474.563 399.205 464.063 395.605 444.863C394.505 438.763 392.705 428.863 391.505 422.863C386.405 395.363 377.305 379.563 360.105 368.363C349.305 361.363 341.305 359.063 325.405 358.563C305.105 357.963 292.305 360.863 277.005 369.463C263.305 377.163 248.005 394.063 242.605 407.263L240.705 411.863L240.605 401.863C240.505 386.963 237.905 378.363 229.505 365.863C223.405 356.863 220.205 353.863 208.605 346.863C192.205 336.963 186.705 330.163 183.405 316.063C181.205 306.563 177.105 298.963 171.505 293.963C166.905 289.763 160.605 286.863 160.605 288.963ZM185.605 341.263C187.505 341.863 186.705 342.163 181.605 342.763C174.905 343.563 167.405 346.263 166.105 348.363C165.505 349.263 165.205 349.263 164.605 348.363C163.605 346.763 155.105 356.463 152.605 362.063C149.605 368.863 149.005 375.563 151.005 380.763C152.805 385.363 154.405 386.763 156.605 385.363C157.505 384.763 157.705 383.163 157.205 379.763C155.205 364.863 155.305 363.663 157.605 358.763C159.705 354.463 160.005 354.263 160.705 356.163C161.205 357.363 162.105 358.363 162.805 358.363C163.505 358.363 166.705 355.463 170.105 352.063C175.705 346.063 176.505 345.563 183.405 344.063C191.605 342.163 192.405 342.363 202.405 348.363C209.905 352.763 219.405 360.863 218.505 361.863C218.105 362.163 216.205 361.063 214.305 359.463C208.205 354.063 200.105 350.963 192.105 350.963C184.505 350.963 181.805 351.963 176.905 356.663C172.005 361.263 171.005 365.263 173.505 370.763L175.505 375.263L173.305 379.463C171.605 382.563 170.005 384.063 166.805 385.263C164.405 386.263 160.205 388.863 157.505 391.263C151.905 396.063 151.305 395.963 146.905 389.063C133.505 367.863 150.605 340.363 177.105 340.563C180.405 340.563 184.205 340.863 185.605 341.263ZM200.805 354.463C207.805 356.763 213.505 360.263 210.205 360.363C209.205 360.363 206.305 361.363 203.805 362.563C195.905 366.563 191.205 377.063 194.605 383.463C195.905 385.763 195.905 385.763 190.605 383.863C188.305 383.063 185.205 382.363 183.805 382.363C181.005 382.363 177.605 379.863 177.605 377.763C177.605 376.763 178.205 376.663 180.105 377.363C188.905 380.663 197.705 369.363 191.405 362.663C188.805 359.863 183.205 359.563 180.405 362.063C177.705 364.463 178.005 369.963 181.005 371.863C185.705 374.963 191.205 370.963 189.205 365.863C188.905 364.963 189.005 364.563 189.605 364.863C191.405 365.963 190.705 371.963 188.605 373.863C183.605 378.363 175.605 374.063 175.605 366.863C175.605 360.063 178.905 356.363 187.105 353.763C192.605 352.063 193.705 352.063 200.805 354.463ZM216.305 364.563C219.405 367.863 224.505 377.663 226.105 383.163C226.805 385.763 227.705 390.963 228.005 394.863L228.705 401.863L226.505 398.363C225.305 396.463 223.305 393.863 222.005 392.663C219.005 389.963 217.605 386.263 218.305 383.463C219.105 380.363 217.105 380.963 214.505 384.563C213.005 386.663 212.205 389.163 212.205 392.263C212.105 396.263 212.905 397.963 218.405 406.163C221.805 411.263 224.605 416.463 224.705 417.663C224.805 419.563 224.905 419.463 226.205 416.863L227.705 413.863L227.105 416.863C226.705 418.463 225.405 422.163 224.205 424.963C222.405 428.963 221.205 430.163 219.005 430.663C217.405 431.063 215.105 431.563 213.805 431.963L211.605 432.563L214.205 427.563C217.805 420.563 218.505 411.763 215.805 408.363C214.105 406.363 213.505 406.063 212.505 407.063C210.305 409.163 209.605 408.563 209.605 404.563C209.605 400.663 205.805 393.363 202.205 390.463C200.605 389.163 200.705 388.963 203.605 387.763C207.005 386.263 208.205 384.263 207.105 381.663C206.305 379.963 206.305 379.963 205.905 381.663C205.605 382.963 204.705 383.363 202.805 383.163C199.505 382.763 197.005 378.763 198.005 375.063C199.305 369.663 207.605 362.563 212.705 362.363C213.505 362.363 215.205 363.363 216.305 364.563ZM319.505 363.363C288.705 366.163 263.505 382.363 246.605 410.363C244.305 414.163 242.205 417.363 242.005 417.363C240.805 417.363 250.605 400.063 254.705 394.863C264.105 382.963 272.105 376.663 286.705 369.663C298.205 364.163 305.005 362.663 318.605 362.663H328.105L319.505 363.363ZM340.305 371.363C350.405 373.763 364.805 380.863 370.105 386.063C378.205 393.863 386.105 414.963 385.805 427.863C385.605 436.363 385.205 440.363 384.705 439.763C384.505 439.563 383.605 439.963 382.705 440.663C381.805 441.463 380.305 442.363 379.205 442.763C377.705 443.263 377.505 443.063 378.105 441.663C380.305 436.663 382.505 426.063 382.505 420.263C382.605 413.163 379.805 402.363 377.005 398.863L375.305 396.863L376.105 398.863C381.005 412.463 381.805 426.163 378.305 436.363C376.205 442.463 375.905 442.863 372.805 443.163C368.705 443.563 363.205 440.063 361.505 436.063C359.505 431.263 363.905 425.663 367.305 428.563C368.605 429.563 368.705 429.363 368.405 427.363C368.205 425.263 367.505 424.763 364.505 424.563C361.505 424.263 360.405 424.763 358.705 426.963C354.205 432.663 357.305 441.863 364.605 444.763C366.805 445.663 369.605 446.363 370.805 446.363C372.805 446.363 372.705 446.663 369.505 449.963C367.705 451.863 363.305 454.863 359.805 456.563C347.905 462.463 333.805 460.163 327.905 451.263C326.105 448.563 325.505 446.863 326.305 446.663C329.805 445.463 337.005 439.563 340.205 435.263C342.805 431.663 344.405 430.363 346.305 430.363C347.605 430.363 349.605 429.863 350.705 429.263C352.605 428.263 352.505 428.163 349.505 426.063C346.305 423.863 346.305 423.763 346.105 415.363C346.005 408.763 345.405 405.763 343.705 402.163C341.005 396.463 334.705 390.563 330.505 389.663C326.905 388.963 326.205 387.963 328.105 386.363C330.205 384.663 328.405 381.863 324.505 380.463C320.005 378.963 311.605 379.063 306.705 380.863C304.505 381.663 302.605 381.863 302.605 381.463C302.605 381.063 303.905 378.863 305.505 376.663C310.705 369.463 324.005 367.463 340.305 371.363ZM173.205 392.063C174.305 394.763 175.305 397.163 175.405 397.663C176.005 398.863 169.105 401.363 165.305 401.363C160.905 401.363 155.605 399.463 155.605 397.963C155.605 397.263 156.405 395.963 157.405 395.063C159.305 393.363 169.605 387.463 170.705 387.363C171.105 387.363 172.205 389.463 173.205 392.063ZM184.605 398.263C184.605 401.463 184.005 400.663 183.205 396.363C182.805 393.863 182.905 393.263 183.605 394.363C184.105 395.163 184.605 396.963 184.605 398.263ZM320.705 395.363C332.305 398.963 339.205 404.963 341.705 413.563L342.505 416.463L339.005 413.463C335.305 410.163 333.805 409.963 326.805 411.263C323.705 411.863 321.605 413.163 319.505 415.463C313.605 422.363 312.205 429.463 315.105 438.863C315.905 441.563 316.305 443.963 316.105 444.163C315.805 444.463 313.805 443.463 311.605 441.963C303.305 436.563 301.305 428.263 306.305 420.563C307.805 418.263 310.305 415.963 311.805 415.463C313.305 414.863 314.605 414.263 314.605 413.963C314.605 413.663 313.305 413.963 311.605 414.463C308.305 415.663 303.605 420.663 303.605 422.963C303.605 423.863 303.205 424.163 302.605 423.863C302.105 423.563 301.605 422.363 301.605 421.263C301.605 413.163 286.905 400.363 277.505 400.363C271.605 400.363 270.805 398.863 275.705 396.963C282.705 394.363 288.205 393.563 301.705 393.463C311.805 393.363 315.705 393.763 320.705 395.363ZM234.605 419.663C233.405 426.963 229.105 437.163 223.105 446.863C219.505 452.563 215.505 457.063 207.705 464.063C196.805 473.663 188.605 478.463 177.505 481.763C168.405 484.463 168.705 483.463 178.205 479.563C190.205 474.463 195.905 471.063 207.005 461.863C217.405 453.263 229.105 434.463 233.205 419.563C234.105 416.163 235.105 413.463 235.205 413.663C235.405 413.863 235.105 416.563 234.605 419.663ZM327.105 422.763C322.305 429.263 322.105 429.863 322.105 436.863C322.105 443.063 321.405 445.263 319.505 445.363C318.605 445.363 315.805 437.463 315.105 432.663C314.205 427.063 316.005 422.063 319.805 418.863L322.905 416.263L325.505 418.763C327.405 420.663 327.805 421.763 327.105 422.763ZM331.705 425.963C332.405 426.763 334.305 428.163 335.905 428.963C338.705 430.463 338.705 430.563 337.005 433.163C333.305 439.063 325.405 445.563 323.905 443.963C323.605 443.663 323.305 441.063 323.205 438.063C323.105 433.763 323.605 431.963 325.905 428.563C328.905 423.963 329.705 423.563 331.705 425.963ZM325.305 449.063C326.005 450.563 326.405 451.863 326.205 452.163C325.405 452.863 321.505 448.263 322.105 447.363C323.105 445.763 324.005 446.263 325.305 449.063ZM168.305 483.963C168.005 484.263 167.105 484.363 166.405 484.063C165.605 483.763 165.905 483.463 167.005 483.463C168.105 483.363 168.705 483.663 168.305 483.963ZM164.305 484.963C164.005 485.263 163.105 485.363 162.405 485.063C161.605 484.763 161.905 484.463 163.005 484.463C164.105 484.363 164.705 484.663 164.305 484.963Z"/>
<path d="M185.905 346.063C184.005 346.763 184.305 349.363 186.205 349.363C187.105 349.363 189.605 348.863 191.805 348.163C195.005 347.263 196.205 347.263 199.105 348.663C203.505 350.763 203.605 350.163 199.205 347.463C196.005 345.463 189.105 344.763 185.905 346.063Z"/>
<path d="M316.905 372.063C316.005 372.663 317.005 373.363 319.905 374.063C322.505 374.763 326.405 377.163 329.905 380.263C337.205 386.663 347.405 390.063 351.405 387.463C352.405 386.863 351.905 386.463 349.805 386.063C347.805 385.663 345.605 383.763 342.805 379.963C340.505 376.863 337.705 373.963 336.605 373.363C334.005 371.963 318.505 370.963 316.905 372.063Z"/>
<path d="M349.805 378.063C353.705 382.163 354.605 385.363 356.105 399.763C357.305 410.463 357.905 413.263 360.105 416.463C363.205 421.263 364.105 421.463 361.905 416.963C360.405 413.663 360.405 413.263 363.105 406.663C366.705 398.063 367.105 389.163 364.105 385.163C361.505 381.763 354.005 376.763 350.105 375.863L347.105 375.163L349.805 378.063Z"/>
<path d="M150.605 301.863C150.605 303.463 150.105 306.563 149.605 308.563C148.405 312.663 149.205 315.063 152.905 319.063C155.905 322.363 157.105 321.863 158.205 317.063C159.505 311.463 158.405 307.663 154.205 302.763L150.705 298.863L150.605 301.863Z"/>
<path d="M270.905 308.863C270.905 311.563 271.105 312.663 271.305 311.063C271.505 309.563 271.505 307.363 271.305 306.063C271.105 304.863 270.905 306.063 270.905 308.863Z"/>
<path d="M138.005 314.263C140.305 316.763 146.505 320.763 147.105 320.163C147.605 319.763 139.105 313.263 137.105 312.463C136.605 312.263 137.005 313.063 138.005 314.263Z"/>
<path d="M271.705 317.963C271.605 323.563 276.705 333.663 281.005 336.363C285.005 338.763 288.605 338.963 288.605 336.863C288.605 334.763 285.605 333.763 284.605 335.463C282.605 338.563 275.205 327.863 273.005 318.963L271.805 313.863L271.705 317.963ZM286.605 336.363C286.605 336.863 286.105 337.363 285.505 337.363C285.005 337.363 284.805 336.863 285.105 336.363C285.405 335.763 285.905 335.363 286.205 335.363C286.405 335.363 286.605 335.763 286.605 336.363Z"/>
<path d="M151.805 333.863C148.905 335.963 149.205 339.763 152.305 340.163C153.505 340.363 156.605 339.563 159.205 338.463C161.805 337.263 165.705 336.363 168.005 336.363L172.105 336.263L169.305 334.763C164.905 332.363 154.605 331.863 151.805 333.863Z"/>
<path d="M103.105 349.063C101.805 350.563 98.9047 351.963 95.1047 352.963C82.4047 356.063 79.5047 358.463 78.1047 366.863C77.7047 369.063 77.2047 371.763 76.9047 372.863C76.4047 374.663 76.5047 374.763 78.1047 373.363C79.8047 371.963 79.8047 371.963 78.7047 374.263C78.0047 375.563 77.8047 376.463 78.3047 376.163C78.7047 375.963 80.7047 375.063 82.6047 374.163C84.5047 373.263 88.3047 371.763 91.0047 370.863C99.7047 367.763 106.505 359.463 106.605 351.863C106.605 347.263 105.405 346.363 103.105 349.063ZM88.0047 363.263C86.3047 364.263 83.7047 366.663 82.2047 368.463C80.7047 370.363 79.9047 370.963 80.5047 369.863C82.7047 365.863 87.7047 361.363 90.1047 361.363C90.6047 361.363 89.7047 362.263 88.0047 363.263Z"/>
<path d="M103.905 369.863C95.4046 372.163 91.3046 374.863 84.9046 381.763C78.9046 388.363 72.5046 399.463 72.7046 402.963C72.7046 404.363 73.0046 404.163 73.5046 402.363C77.0046 391.063 87.4046 378.563 97.3046 373.763C102.305 371.263 104.305 370.863 111.605 370.863C124.805 370.863 132.005 375.563 137.805 387.963C144.305 401.963 141.905 414.463 131.505 419.863C129.105 421.163 128.905 421.063 127.105 417.663C124.405 412.763 121.605 411.163 115.705 411.163C110.805 411.263 105.805 413.063 102.305 416.163C100.905 417.363 100.105 417.463 98.0046 416.563C84.6046 410.363 75.5046 427.063 83.8046 442.563C87.2046 449.063 91.2046 452.663 99.6046 456.863C106.605 460.463 119.105 461.463 124.605 458.963C126.505 458.063 127.005 457.763 125.605 458.163C124.205 458.563 119.305 458.863 114.605 458.863C107.205 458.763 105.305 458.363 99.6046 455.663C92.1046 452.063 87.5046 447.663 84.7046 441.363C79.7046 430.263 84.8046 417.363 94.2046 417.363C98.5046 417.363 98.9046 418.363 97.0046 422.963C93.9046 430.463 97.7046 443.863 104.605 449.663C114.005 457.563 131.705 454.763 141.405 443.863C144.205 440.763 144.605 440.463 143.205 442.863C140.605 447.063 136.805 451.063 132.205 454.463C127.005 458.363 128.405 458.163 134.405 454.163C140.505 450.163 145.005 444.263 147.705 436.763C150.905 428.263 150.805 413.563 147.705 403.363C145.205 395.163 138.305 382.963 132.805 377.163C126.105 370.063 114.005 366.963 103.905 369.863ZM146.705 403.763C150.805 418.763 149.805 429.263 143.305 438.363C133.205 452.463 116.005 454.563 105.805 442.863C102.705 439.363 102.005 436.563 102.605 429.363C102.805 426.163 105.005 422.863 108.105 420.763C110.605 419.163 111.005 419.263 117.605 422.263C126.005 426.163 128.905 425.863 134.705 420.663C139.405 416.363 142.605 409.763 143.305 402.563C143.905 396.763 144.805 397.063 146.705 403.763Z"/>
<path d="M143.105 410.563C141.305 418.663 134.605 427.563 128.105 430.463C122.505 433.063 117.605 432.863 113.205 429.863C109.205 427.163 108.605 427.763 111.605 431.563C115.405 436.363 124.505 439.063 127.405 436.163C128.405 435.163 128.905 435.163 129.505 436.263C130.805 438.363 133.805 437.163 136.405 433.363C139.205 429.063 140.205 428.663 140.905 431.363C141.205 432.463 141.805 433.363 142.305 433.363C144.405 433.363 145.605 427.763 145.605 417.863C145.605 407.563 144.405 404.263 143.105 410.563Z"/>
<path d="M65.8047 377.363C65.5047 384.263 65.5047 384.363 68.6047 386.163C71.1047 387.563 71.6047 388.363 71.2047 390.363C70.9047 391.763 69.7047 397.163 68.6047 402.363C67.5047 407.563 66.6047 414.563 66.5047 417.863C66.4047 421.363 66.1047 423.063 65.7047 421.863C64.0047 416.663 56.3047 403.063 52.5047 398.763C46.5047 391.763 38.7047 386.663 32.5047 385.863C29.8047 385.463 27.2047 385.463 26.9047 385.763C26.5047 386.063 27.5047 386.363 29.0047 386.363C30.4047 386.363 33.3047 387.063 35.4047 387.863C47.7047 393.063 55.2047 401.663 61.6047 418.363L63.7047 423.863L60.4047 420.663C56.4047 416.863 52.8047 415.363 47.6047 415.363C37.5047 415.363 29.6047 422.463 29.6047 431.663C29.6047 435.863 30.0047 436.963 33.0047 439.963C35.0047 441.963 37.4047 443.363 38.8047 443.363C42.0047 443.363 45.6047 440.663 45.6047 438.363C45.6047 435.963 44.0047 434.963 43.2047 436.863C42.4047 439.163 37.9047 438.663 36.2047 436.163C31.3047 429.163 38.4047 418.863 48.9047 417.663C58.2047 416.563 62.8047 421.563 68.6047 439.063C75.2047 459.263 81.7047 469.463 93.1047 477.663C99.0047 481.863 104.605 483.563 104.605 481.163C104.605 479.363 101.805 476.863 93.8047 471.463C78.6047 461.263 70.1047 446.163 68.9047 426.863C68.4047 418.963 69.2047 410.663 72.0047 394.863C73.9047 384.663 72.9047 376.463 69.6047 372.863C68.3047 371.463 67.0047 370.363 66.6047 370.363C66.3047 370.363 65.9047 373.563 65.8047 377.363Z"/>
<path d="M105.605 374.363C102.405 375.063 102.605 375.063 107.705 375.263C116.105 375.463 121.305 378.563 125.105 385.763C128.505 392.263 129.905 393.163 130.405 389.163C131.205 382.563 124.205 375.863 115.005 374.363C111.705 373.763 109.105 373.463 109.105 373.463C109.105 373.563 107.505 373.963 105.605 374.363Z"/>
<path d="M38.6047 378.663C38.6047 379.463 41.9047 383.063 45.9047 386.763C53.9047 394.063 58.2047 400.363 62.7047 411.563C65.6047 418.663 65.7047 418.763 65.2047 414.363C64.6047 408.863 61.3047 398.663 57.8047 391.563C54.2047 384.063 46.7047 377.363 42.1047 377.363C39.9047 377.363 38.6047 377.863 38.6047 378.663Z"/>
<path d="M97.5047 380.763C86.2047 384.763 77.7047 394.363 74.0047 407.063C72.2047 413.363 72.4047 431.863 74.5047 436.363C75.4047 438.463 75.5047 438.263 74.8047 434.863C74.4047 432.663 74.1047 426.163 74.1047 420.363C74.1047 410.963 74.4047 409.263 76.9047 404.163C81.8047 394.063 89.0047 388.963 103.905 384.863C107.305 383.963 109.605 382.763 109.605 381.963C109.605 379.163 103.605 378.563 97.5047 380.763Z"/>
<path d="M9.4047 391.363C3.7047 394.463 2.6047 396.663 2.6047 405.863C2.6047 411.563 2.1047 414.563 1.0047 416.163C-0.3953 418.163 -0.3953 418.363 1.4047 418.363C5.2047 418.363 10.7047 415.263 12.6047 412.063C15.1047 408.163 16.2047 403.763 17.0047 395.463C17.5047 389.663 17.5047 389.263 15.9047 390.463C15.0047 391.263 13.0047 393.863 11.4047 396.263C9.9047 398.763 8.6047 400.363 8.6047 399.963C8.6047 398.563 10.9047 394.863 13.4047 392.063C16.5047 388.863 14.8047 388.563 9.4047 391.363Z"/>
<path d="M62.1046 390.363C61.4046 391.563 64.3046 406.363 65.6046 407.663C66.9046 409.163 67.8046 396.463 66.6046 392.763C65.5046 389.463 63.4046 388.363 62.1046 390.363Z"/>
<path d="M95.9046 398.063C95.0046 399.463 93.2046 400.463 90.4046 400.863C80.7046 402.463 77.0046 407.463 76.0046 420.063L75.5046 426.863L77.9046 422.363C79.7046 419.263 82.3046 416.663 87.2046 413.363C94.9046 408.363 97.9046 404.063 97.4046 399.163C97.1046 395.963 97.0046 395.963 95.9046 398.063Z"/>
<path d="M71.8047 407.863C71.8047 409.463 72.0047 410.063 72.3047 409.063C72.5047 408.163 72.5047 406.763 72.3047 406.063C72.0047 405.463 71.8047 406.163 71.8047 407.863Z"/>
<path d="M70.9047 418.363C70.9047 422.463 71.1047 424.163 71.3047 422.063C71.5047 420.063 71.5047 416.663 71.3047 414.563C71.1047 412.563 70.9047 414.263 70.9047 418.363Z"/>
<path d="M250.405 415.263C248.605 416.863 247.305 418.363 247.605 418.563C250.905 420.863 263.805 426.363 265.905 426.363C269.605 426.363 274.705 424.163 277.005 421.463C278.905 419.363 278.905 419.363 276.305 419.363C274.905 419.363 271.105 417.763 267.905 415.863C260.305 411.263 255.005 411.063 250.405 415.263Z"/>
<path d="M244.505 424.063C243.005 425.663 240.205 430.463 238.105 434.863C230.705 450.363 222.605 459.563 206.805 470.663C193.105 480.263 179.205 485.963 163.605 488.263C151.305 490.063 150.705 490.263 159.605 489.763C178.105 488.663 191.805 483.963 213.105 471.163C236.505 457.163 255.005 434.063 250.405 424.663C248.605 420.963 247.405 420.863 244.505 424.063Z"/>
<path d="M173.005 431.563C172.605 432.063 172.005 438.063 171.605 444.663C170.805 458.163 169.305 462.463 163.605 467.863C161.005 470.263 160.605 470.463 161.505 468.663C164.405 463.063 161.505 454.763 155.605 451.463C150.905 448.863 149.305 448.863 144.505 451.563C137.805 455.363 136.905 463.363 142.605 468.863C146.305 472.363 150.905 472.463 154.305 469.063C157.805 465.663 157.705 460.663 154.205 457.663C150.905 454.863 148.205 454.763 145.605 457.363C142.205 460.763 143.105 465.463 147.605 467.263C149.505 467.963 149.605 468.263 148.305 468.263C143.105 468.463 139.505 462.463 141.805 457.663C144.605 451.863 153.205 450.863 158.205 455.863C161.505 459.163 161.605 466.863 158.405 470.963C157.105 472.463 156.805 473.363 157.605 472.863C158.805 472.163 158.905 472.263 157.905 473.463C156.005 475.763 146.105 480.563 140.305 481.963C135.405 483.063 135.305 483.163 138.705 483.263C152.505 483.563 173.505 470.063 177.905 457.863C180.605 450.563 181.305 438.563 179.305 434.663C177.605 431.563 174.105 429.763 173.005 431.563Z"/>
<path d="M383.205 445.063C382.605 446.463 382.705 446.563 383.705 445.663C384.405 444.963 384.705 444.163 384.405 443.863C384.105 443.563 383.505 444.063 383.205 445.063Z"/>
<path d="M79.6047 448.863C79.6047 450.963 86.5047 459.963 91.8047 464.763C102.705 474.663 115.305 479.563 130.105 479.563C139.205 479.663 149.605 477.063 152.205 474.263C153.805 472.463 153.805 472.363 151.905 472.363C150.805 472.363 147.305 473.363 144.005 474.563C135.805 477.463 118.405 477.763 111.105 474.963C100.405 470.863 88.5047 461.463 82.2047 451.963C80.8047 449.863 79.6047 448.463 79.6047 448.863Z"/>
<path d="M452.105 453.963C447.505 456.263 443.805 460.263 441.405 465.263C440.305 467.763 438.205 471.363 436.905 473.063C435.605 474.863 435.005 476.363 435.605 476.363C436.205 476.363 436.405 476.763 436.105 477.363C435.305 478.663 443.705 478.663 449.105 477.363C453.705 476.363 455.205 474.563 458.605 466.263C460.005 462.863 462.505 458.563 464.205 456.763C467.105 453.663 467.105 453.463 465.205 452.963C461.305 451.863 455.105 452.363 452.105 453.963ZM449.705 469.263C448.705 471.063 444.405 474.363 443.005 474.363C442.405 474.363 449.705 467.463 450.405 467.363C450.505 467.363 450.205 468.163 449.705 469.263Z"/>
<path d="M219.405 469.263C208.205 478.263 197.205 483.263 175.605 489.263C172.605 490.163 172.905 490.163 177.605 489.663C192.905 488.163 210.005 483.263 219.505 477.663C225.805 473.863 230.605 468.463 230.605 465.163C230.605 461.863 226.805 463.263 219.405 469.263Z"/>
</svg>
