<svg width="189" height="55" viewBox="0 0 189 55" fill="none" xmlns="http://www.w3.org/2000/svg">
<path d="M26.272 44.352C27.3387 46.1867 27.872 47.9573 27.872 49.664C27.872 50.048 27.8293 50.3893 27.744 50.688C27.7013 51.0293 27.6373 51.3707 27.552 51.712C26.8267 51.6267 26.0587 51.5627 25.248 51.52C24.48 51.4773 23.6693 51.456 22.816 51.456C21.792 51.456 20.7467 51.4773 19.68 51.52C18.656 51.6053 17.504 51.712 16.224 51.84C14.944 51.968 13.5147 52.1387 11.936 52.352C10.3573 52.5653 8.52267 52.8427 6.432 53.184C5.45067 52.8427 4.46933 52.16 3.488 51.136C2.50667 50.1547 1.58933 48.96 0.736 47.552C1.16267 46.6133 1.696 45.4613 2.336 44.096C2.976 42.688 3.72267 41.0027 4.576 39.04C5.42933 37.0347 6.368 34.7093 7.392 32.064C8.45867 29.376 9.58933 26.2827 10.784 22.784C11.552 20.48 12.2133 18.4533 12.768 16.704C13.3227 14.9547 13.8133 13.2693 14.24 11.648C14.7093 9.984 15.1573 8.256 15.584 6.464C16.0107 4.672 16.48 2.60266 16.992 0.255997C18.6987 0.597331 20.1707 1.23733 21.408 2.176C22.688 3.072 23.904 4.37333 25.056 6.08C24.7147 6.63467 24.2667 7.53067 23.712 8.768C23.1573 10.0053 22.496 11.52 21.728 13.312C21.0027 15.0613 20.192 17.0667 19.296 19.328C18.4 21.5467 17.4613 23.936 16.48 26.496C15.5413 29.0133 14.624 31.3813 13.728 33.6C12.832 35.8187 12.0213 37.824 11.296 39.616C10.6133 41.408 10.0587 42.944 9.632 44.224C9.20533 45.504 8.992 46.464 8.992 47.104C9.67467 47.0613 10.2933 47.0187 10.848 46.976C11.4027 46.9333 11.9787 46.8693 12.576 46.784C13.1733 46.656 13.8133 46.528 14.496 46.4C15.2213 46.2293 16.0747 46.016 17.056 45.76C17.9093 45.5467 18.6987 45.376 19.424 45.248C20.1493 45.0773 20.8533 44.9493 21.536 44.864C22.2613 44.736 22.9867 44.6507 23.712 44.608C24.48 44.5227 25.3333 44.4373 26.272 44.352ZM49.491 46.592C48.6803 45.9093 48.1257 45.056 47.827 44.032C47.571 43.008 47.443 42.1333 47.443 41.408C47.443 40.512 47.5497 39.744 47.763 39.104C47.5923 39.104 47.2083 39.4453 46.611 40.128C46.0137 40.8107 45.3523 41.6213 44.627 42.56C43.9443 43.4987 43.2617 44.416 42.579 45.312C41.8963 46.208 41.3843 46.8693 41.043 47.296C40.4883 47.8933 39.955 48.3627 39.443 48.704C38.9737 49.0453 38.5897 49.2373 38.291 49.28C37.6083 49.2373 36.883 49.088 36.115 48.832C35.3897 48.6187 34.6857 48.2987 34.003 47.872C33.363 47.4453 32.787 46.9333 32.275 46.336C31.8057 45.7387 31.4857 45.056 31.315 44.288C31.315 43.0933 31.3363 42.112 31.379 41.344C31.4643 40.576 31.6137 39.744 31.827 38.848C32.211 37.2267 32.7657 35.392 33.491 33.344C34.259 31.296 35.1337 29.2907 36.115 27.328C37.0963 25.3227 38.1843 23.4667 39.379 21.76C40.6163 20.0107 41.9177 18.6453 43.283 17.664C43.667 17.664 44.115 17.7067 44.627 17.792C45.139 17.8347 45.651 17.9413 46.163 18.112C46.7177 18.2827 47.2297 18.496 47.699 18.752C48.211 18.9653 48.6377 19.264 48.979 19.648C48.595 20.0747 47.6137 21.504 46.035 23.936C44.499 26.368 42.771 29.8667 40.851 34.432C40.6377 34.9013 40.3817 35.584 40.083 36.48C39.7843 37.376 39.4857 38.3147 39.187 39.296C38.8883 40.2773 38.6323 41.2373 38.419 42.176C38.2483 43.1147 38.163 43.8613 38.163 44.416C38.163 44.7573 38.2057 45.0133 38.291 45.184C38.419 45.3547 38.5257 45.4827 38.611 45.568C39.251 45.312 40.0617 44.608 41.043 43.456C42.0243 42.304 43.3897 40.5333 45.139 38.144C45.5657 37.5467 46.0563 36.864 46.611 36.096C47.2083 35.328 47.8057 34.5173 48.403 33.664C49.0003 32.768 49.555 31.8507 50.067 30.912C50.6217 29.9733 51.0697 29.0347 51.411 28.096C51.5817 27.584 51.795 26.9867 52.051 26.304C52.3497 25.5787 52.691 24.832 53.075 24.064C53.5017 23.296 53.971 22.528 54.483 21.76C55.0377 20.9493 55.6777 20.2027 56.403 19.52C56.9577 19.52 57.555 19.584 58.195 19.712C58.835 19.84 59.4323 20.0107 59.987 20.224C60.5843 20.3947 61.0963 20.608 61.523 20.864C61.9497 21.0773 62.2697 21.312 62.483 21.568C61.715 23.4453 60.8617 25.3013 59.923 27.136C58.9843 28.9707 58.1097 30.784 57.299 32.576C56.4883 34.3253 55.8057 36.0747 55.251 37.824C54.6963 39.5733 54.419 41.28 54.419 42.944C54.419 43.84 54.483 44.6293 54.611 45.312C54.7817 45.952 54.9523 46.5067 55.123 46.976C55.2937 47.4027 55.443 47.7653 55.571 48.064C55.7417 48.3627 55.827 48.6187 55.827 48.832C55.827 48.8747 55.7843 48.9387 55.699 49.024C55.6563 49.0667 55.6137 49.088 55.571 49.088C55.2723 49.088 54.8883 49.024 54.419 48.896C53.9497 48.768 53.4163 48.576 52.819 48.32C52.2643 48.1067 51.6883 47.8507 51.091 47.552C50.5363 47.2533 50.003 46.9333 49.491 46.592ZM85.788 22.528C85.7453 23.3387 85.596 24.192 85.34 25.088C85.1267 25.9413 84.8493 26.7307 84.508 27.456C84.1667 28.1387 83.804 28.7147 83.42 29.184C83.036 29.6533 82.6733 29.888 82.332 29.888C81.8627 29.8453 81.5853 29.5253 81.5 28.928C81.5 28.8 81.5427 28.608 81.628 28.352C81.756 28.0533 81.884 27.7333 82.012 27.392C82.14 27.0507 82.2467 26.7093 82.332 26.368C82.46 26.0267 82.524 25.728 82.524 25.472C82.524 24.8747 82.3747 24.384 82.076 24C81.82 23.5733 81.4573 23.36 80.988 23.36C79.2813 23.36 77.98 24.4267 77.084 26.56C76.188 28.6933 75.74 31.8293 75.74 35.968C75.74 36.3947 75.7613 36.6507 75.804 36.736C76.7 36.6933 77.4893 36.672 78.172 36.672C78.8973 36.6293 79.6013 36.608 80.284 36.608C80.3267 36.6933 80.348 36.864 80.348 37.12C80.348 37.504 80.2627 37.7813 80.092 37.952C79.1107 38.1653 78.3213 38.3573 77.724 38.528C77.1693 38.656 76.7427 38.784 76.444 38.912C76.1453 39.04 75.9533 39.1893 75.868 39.36C75.8253 39.488 75.804 39.68 75.804 39.936C75.804 40.2773 75.804 40.6187 75.804 40.96C75.8467 41.3013 75.868 41.728 75.868 42.24C75.868 45.824 74.8867 48.704 72.924 50.88C71.004 53.056 68.316 54.3147 64.86 54.656C64.2627 54.6133 63.644 54.4427 63.004 54.144C62.364 53.8453 61.7453 53.4613 61.148 52.992C60.5933 52.5227 60.1027 51.9893 59.676 51.392C59.2493 50.8373 58.9507 50.2613 58.78 49.664C58.78 48.0427 59.1213 46.5067 59.804 45.056C60.4867 43.5627 61.404 42.2613 62.556 41.152C63.7507 40 65.1373 39.0827 66.716 38.4C68.3373 37.6747 70.0867 37.248 71.964 37.12C71.964 36.0533 71.8573 35.008 71.644 33.984C71.4307 32.96 71.196 31.9787 70.94 31.04C70.7267 30.0587 70.5133 29.12 70.3 28.224C70.0867 27.2853 69.98 26.368 69.98 25.472C69.98 24.32 70.2147 23.1893 70.684 22.08C71.1533 20.928 71.772 19.8827 72.54 18.944C73.308 17.9627 74.204 17.1307 75.228 16.448C76.252 15.7653 77.3187 15.296 78.428 15.04C78.8973 15.168 79.516 15.552 80.284 16.192C81.0947 16.7893 81.884 17.472 82.652 18.24C83.42 19.008 84.1027 19.7973 84.7 20.608C85.2973 21.376 85.66 22.016 85.788 22.528ZM64.668 51.712C65.692 51.2853 66.652 50.6667 67.548 49.856C68.4867 49.0453 69.2973 48.128 69.98 47.104C70.6627 46.08 71.196 44.992 71.58 43.84C72.0067 42.688 72.22 41.5573 72.22 40.448C71.3667 40.576 70.428 40.9813 69.404 41.664C68.38 42.304 67.42 43.0933 66.524 44.032C65.628 44.928 64.8813 45.8667 64.284 46.848C63.6867 47.8293 63.388 48.6827 63.388 49.408C63.388 50.3467 63.8147 51.1147 64.668 51.712ZM93.385 50.24C90.953 49.984 89.0117 48.9173 87.561 47.04C86.1103 45.1627 85.385 42.7733 85.385 39.872C85.385 38.1653 85.641 36.3947 86.153 34.56C86.665 32.7253 87.3903 30.9547 88.329 29.248C89.2677 27.4987 90.377 25.856 91.657 24.32C92.937 22.784 94.3237 21.4613 95.817 20.352C98.1637 18.6027 100.361 17.728 102.409 17.728C103.774 18.4533 105.118 19.968 106.441 22.272C106.654 22.272 106.846 22.272 107.017 22.272C107.188 22.2293 107.38 22.208 107.593 22.208C109.854 22.208 110.985 24.2133 110.985 28.224C110.985 30.912 110.537 33.472 109.641 35.904C108.788 38.2933 107.572 40.4693 105.993 42.432C104.457 44.3947 102.601 46.0587 100.425 47.424C98.2917 48.7467 95.945 49.6853 93.385 50.24ZM96.649 30.08C95.9237 31.0613 95.241 32.128 94.601 33.28C93.961 34.432 93.4063 35.6053 92.937 36.8C92.4677 37.952 92.105 39.0827 91.849 40.192C91.593 41.2587 91.465 42.2187 91.465 43.072C91.465 44.096 91.6357 45.0773 91.977 46.016C92.3183 46.9547 92.7023 47.488 93.129 47.616C95.049 47.1893 96.7983 46.4 98.377 45.248C99.9983 44.0533 101.385 42.5813 102.537 40.832C103.732 39.0827 104.649 37.0987 105.289 34.88C105.972 32.6613 106.313 30.2933 106.313 27.776C106.313 26.6667 106.249 25.792 106.121 25.152C105.993 24.512 105.78 23.9573 105.481 23.488C103.604 24.0427 101.918 24.9387 100.425 26.176C98.9743 27.4133 97.7157 28.7147 96.649 30.08ZM117.234 23.488C117.021 23.232 116.829 22.6987 116.658 21.888C116.487 21.0347 116.402 20.3093 116.402 19.712C117.511 19.7973 118.578 19.8827 119.602 19.968C120.626 20.0107 121.565 20.0533 122.418 20.096C123.058 18.816 123.741 17.5573 124.466 16.32C125.234 15.04 125.959 13.888 126.642 12.864C127.367 11.7973 128.029 10.9013 128.626 10.176C129.266 9.45066 129.757 8.98133 130.098 8.768C130.525 8.768 131.058 8.85333 131.698 9.024C132.381 9.152 133.063 9.344 133.746 9.6C134.429 9.81333 135.047 10.048 135.602 10.304C136.157 10.56 136.541 10.816 136.754 11.072C135.474 12.6933 134.365 14.208 133.426 15.616C132.53 16.9813 131.549 18.56 130.482 20.352C131.335 20.352 132.189 20.3307 133.042 20.288C133.938 20.2453 134.834 20.1813 135.73 20.096C135.943 20.3093 136.114 20.5867 136.242 20.928C136.37 21.2267 136.434 21.5467 136.434 21.888C134.343 22.656 131.805 23.0827 128.818 23.168C127.751 25.216 126.791 27.264 125.938 29.312C125.127 31.3173 124.423 33.2587 123.826 35.136C123.271 37.0133 122.823 38.784 122.482 40.448C122.183 42.112 122.034 43.6053 122.034 44.928C122.034 46.8053 122.738 47.8507 124.146 48.064C125.426 47.8933 126.642 47.5733 127.794 47.104C128.946 46.6347 129.97 46.0373 130.866 45.312C131.122 45.696 131.271 46.016 131.314 46.272C131.058 46.656 130.61 47.104 129.97 47.616C129.373 48.128 128.711 48.6187 127.986 49.088C127.261 49.6 126.557 50.0267 125.874 50.368C125.191 50.7093 124.679 50.9013 124.338 50.944C123.271 50.9013 122.205 50.6667 121.138 50.24C120.071 49.8133 119.09 49.28 118.194 48.64C117.341 48 116.637 47.296 116.082 46.528C115.527 45.7173 115.25 44.928 115.25 44.16C115.25 43.136 115.378 41.856 115.634 40.32C115.933 38.7413 116.338 37.0347 116.85 35.2C117.362 33.3653 117.959 31.4453 118.642 29.44C119.325 27.4347 120.071 25.4507 120.882 23.488H117.234ZM139.734 23.488C139.521 23.232 139.329 22.6987 139.158 21.888C138.987 21.0347 138.902 20.3093 138.902 19.712C140.011 19.7973 141.078 19.8827 142.102 19.968C143.126 20.0107 144.065 20.0533 144.918 20.096C145.558 18.816 146.241 17.5573 146.966 16.32C147.734 15.04 148.459 13.888 149.142 12.864C149.867 11.7973 150.529 10.9013 151.126 10.176C151.766 9.45066 152.257 8.98133 152.598 8.768C153.025 8.768 153.558 8.85333 154.198 9.024C154.881 9.152 155.563 9.344 156.246 9.6C156.929 9.81333 157.547 10.048 158.102 10.304C158.657 10.56 159.041 10.816 159.254 11.072C157.974 12.6933 156.865 14.208 155.926 15.616C155.03 16.9813 154.049 18.56 152.982 20.352C153.835 20.352 154.689 20.3307 155.542 20.288C156.438 20.2453 157.334 20.1813 158.23 20.096C158.443 20.3093 158.614 20.5867 158.742 20.928C158.87 21.2267 158.934 21.5467 158.934 21.888C156.843 22.656 154.305 23.0827 151.318 23.168C150.251 25.216 149.291 27.264 148.438 29.312C147.627 31.3173 146.923 33.2587 146.326 35.136C145.771 37.0133 145.323 38.784 144.982 40.448C144.683 42.112 144.534 43.6053 144.534 44.928C144.534 46.8053 145.238 47.8507 146.646 48.064C147.926 47.8933 149.142 47.5733 150.294 47.104C151.446 46.6347 152.47 46.0373 153.366 45.312C153.622 45.696 153.771 46.016 153.814 46.272C153.558 46.656 153.11 47.104 152.47 47.616C151.873 48.128 151.211 48.6187 150.486 49.088C149.761 49.6 149.057 50.0267 148.374 50.368C147.691 50.7093 147.179 50.9013 146.838 50.944C145.771 50.9013 144.705 50.6667 143.638 50.24C142.571 49.8133 141.59 49.28 140.694 48.64C139.841 48 139.137 47.296 138.582 46.528C138.027 45.7173 137.75 44.928 137.75 44.16C137.75 43.136 137.878 41.856 138.134 40.32C138.433 38.7413 138.838 37.0347 139.35 35.2C139.862 33.3653 140.459 31.4453 141.142 29.44C141.825 27.4347 142.571 25.4507 143.382 23.488H139.734ZM175.866 46.592C175.055 45.9093 174.501 45.056 174.202 44.032C173.946 43.008 173.818 42.1333 173.818 41.408C173.818 40.512 173.925 39.744 174.138 39.104C173.967 39.104 173.583 39.4453 172.986 40.128C172.389 40.8107 171.727 41.6213 171.002 42.56C170.319 43.4987 169.637 44.416 168.954 45.312C168.271 46.208 167.759 46.8693 167.418 47.296C166.863 47.8933 166.33 48.3627 165.818 48.704C165.349 49.0453 164.965 49.2373 164.666 49.28C163.983 49.2373 163.258 49.088 162.49 48.832C161.765 48.6187 161.061 48.2987 160.378 47.872C159.738 47.4453 159.162 46.9333 158.65 46.336C158.181 45.7387 157.861 45.056 157.69 44.288C157.69 43.0933 157.711 42.112 157.754 41.344C157.839 40.576 157.989 39.744 158.202 38.848C158.586 37.2267 159.141 35.392 159.866 33.344C160.634 31.296 161.509 29.2907 162.49 27.328C163.471 25.3227 164.559 23.4667 165.754 21.76C166.991 20.0107 168.293 18.6453 169.658 17.664C170.042 17.664 170.49 17.7067 171.002 17.792C171.514 17.8347 172.026 17.9413 172.538 18.112C173.093 18.2827 173.605 18.496 174.074 18.752C174.586 18.9653 175.013 19.264 175.354 19.648C174.97 20.0747 173.989 21.504 172.41 23.936C170.874 26.368 169.146 29.8667 167.226 34.432C167.013 34.9013 166.757 35.584 166.458 36.48C166.159 37.376 165.861 38.3147 165.562 39.296C165.263 40.2773 165.007 41.2373 164.794 42.176C164.623 43.1147 164.538 43.8613 164.538 44.416C164.538 44.7573 164.581 45.0133 164.666 45.184C164.794 45.3547 164.901 45.4827 164.986 45.568C165.626 45.312 166.437 44.608 167.418 43.456C168.399 42.304 169.765 40.5333 171.514 38.144C171.941 37.5467 172.431 36.864 172.986 36.096C173.583 35.328 174.181 34.5173 174.778 33.664C175.375 32.768 175.93 31.8507 176.442 30.912C176.997 29.9733 177.445 29.0347 177.786 28.096C177.957 27.584 178.17 26.9867 178.426 26.304C178.725 25.5787 179.066 24.832 179.45 24.064C179.877 23.296 180.346 22.528 180.858 21.76C181.413 20.9493 182.053 20.2027 182.778 19.52C183.333 19.52 183.93 19.584 184.57 19.712C185.21 19.84 185.807 20.0107 186.362 20.224C186.959 20.3947 187.471 20.608 187.898 20.864C188.325 21.0773 188.645 21.312 188.858 21.568C188.09 23.4453 187.237 25.3013 186.298 27.136C185.359 28.9707 184.485 30.784 183.674 32.576C182.863 34.3253 182.181 36.0747 181.626 37.824C181.071 39.5733 180.794 41.28 180.794 42.944C180.794 43.84 180.858 44.6293 180.986 45.312C181.157 45.952 181.327 46.5067 181.498 46.976C181.669 47.4027 181.818 47.7653 181.946 48.064C182.117 48.3627 182.202 48.6187 182.202 48.832C182.202 48.8747 182.159 48.9387 182.074 49.024C182.031 49.0667 181.989 49.088 181.946 49.088C181.647 49.088 181.263 49.024 180.794 48.896C180.325 48.768 179.791 48.576 179.194 48.32C178.639 48.1067 178.063 47.8507 177.466 47.552C176.911 47.2533 176.378 46.9333 175.866 46.592Z" fill="black"/>
</svg>
