<svg width="350" height="355" viewBox="0 0 350 355" fill="none" xmlns="http://www.w3.org/2000/svg">
<path d="M40.611 354.117C45.0447 351.861 43.2945 346.455 37.6163 344.938C36.0606 344.51 35.7105 344.549 34.816 345.133C33.6103 345.91 33.027 347.194 33.027 349.1C33.027 353.339 36.9551 355.945 40.611 354.117Z" fill="#D1D1D1"/>
<path d="M69.5082 353.106C72.9696 351.394 73.553 348.477 70.9472 345.872C69.8582 344.783 69.3915 344.588 67.7969 344.588C64.4522 344.588 61.0296 347.116 61.0296 349.605C61.0296 350.772 62.002 352.6 63.052 353.3C64.2966 354.194 67.4858 354.078 69.5082 353.106Z" fill="#D1D1D1"/>
<path d="M18.7534 343.577C18.8701 342.955 19.259 341.632 19.648 340.66C20.3091 338.949 20.3091 338.871 19.5702 337.393C18.4812 335.176 15.7198 333.543 12.9196 333.543C11.0527 333.504 10.6638 333.62 9.84708 334.593C9.10812 335.448 8.91366 336.148 8.91366 337.704C8.91366 341.438 11.7528 344.005 16.4199 344.471C18.5201 344.666 18.5201 344.666 18.7534 343.577Z" fill="#D1D1D1"/>
<path d="M61.1462 343.227C67.3301 342.06 73.7473 338.676 76.9754 334.943C80.4368 330.898 82.4203 325.22 82.4203 319.347C82.4203 317.169 82.6148 316.274 83.4704 314.602C84.4038 312.813 84.5594 312.074 84.5594 309.196C84.5594 306.007 84.4816 305.618 82.9259 302.507C81.5647 299.823 80.7091 298.656 77.9477 296.05C76.1198 294.3 74.6419 292.589 74.6419 292.2C74.6419 290.878 73.0862 288.933 71.4138 288.194C69.1969 287.183 66.3189 287.183 65.3077 288.194C63.5964 289.905 63.7909 293.639 65.8133 297.295L67.1745 299.706L65.5021 300.173C64.6076 300.406 62.3519 301.729 60.485 303.129C57.2181 305.579 55.7402 306.357 55.3123 305.968C55.2346 305.851 56.0513 304.296 57.2181 302.507C59.1627 299.473 59.2794 299.162 59.2794 296.789L59.2794 294.3L56.168 293.25C54.4567 292.667 52.3176 291.811 51.4231 291.344C49.7507 290.528 47.0283 288.077 47.0283 287.416C47.0283 286.833 49.7896 286.172 51.3453 286.405C52.1621 286.522 54.4178 287.105 56.3235 287.65C58.2293 288.194 60.3683 288.583 61.1073 288.505C62.3519 288.389 62.3907 288.35 62.5074 286.483C62.5852 285.044 62.313 283.644 61.3407 281.038C60.4072 278.393 60.0572 276.838 60.0572 274.893C60.0572 273.493 60.1739 272.17 60.3294 272.015C60.9517 271.393 62.3907 273.415 64.4132 277.693C66.6689 282.477 67.9524 284.266 68.4969 283.449C69.0025 282.632 68.8469 279.754 68.1468 276.099C67.7968 274.193 67.5634 272.559 67.6801 272.482C67.7968 272.365 70.7137 272.793 74.214 273.415C89.1487 276.099 91.0544 276.332 99.9219 276.332C107.273 276.293 108.673 276.215 111.473 275.476C115.479 274.387 119.874 272.209 125.552 268.359C143.831 256.147 153.01 246.19 157.794 233.473L159.272 229.505L159.816 234.717C160.361 240.551 160.166 242.223 158.338 245.529C156.899 248.174 154.177 250.507 148.226 254.28C145.387 256.069 142.237 258.364 141.187 259.414C139.164 261.436 137.259 264.82 137.259 266.337C137.259 267.153 137.142 267.27 136.17 267.037C129.869 265.598 126.135 267.192 125.202 271.626L124.774 273.726L122.557 273.959C116.373 274.66 110.89 279.443 107.7 286.95C105.834 291.344 103.422 301.029 104.2 301.029C104.628 301.029 107.389 297.762 110.89 293.056C116.179 285.977 120.068 283.177 126.758 281.621C128.586 281.193 131.658 280.455 133.642 280.027C138.464 278.86 140.837 277.654 146.593 273.454C155.888 266.57 160.555 260.931 164.328 251.83C165.028 250.118 165.689 248.991 165.806 249.302C165.883 249.613 166.272 251.285 166.622 252.997C169.228 265.364 176.734 279.093 187.391 291.033C188.713 292.472 189.763 293.756 189.763 293.872C189.763 293.95 189.141 293.756 188.363 293.445C185.991 292.472 182.607 292.083 179.962 292.511C176.579 293.056 173.74 294.534 170.862 297.217C166 301.768 164.172 307.874 166.35 312.385C167.595 314.913 170.473 316.974 173.545 317.558C174.323 317.713 174.984 317.986 174.984 318.18C174.984 318.375 174.362 319.308 173.623 320.28C171.095 323.625 170.978 326.853 173.273 329.42C175.412 331.754 177.979 332.687 182.374 332.687C186.885 332.687 189.297 331.792 191.708 329.187L193.264 327.475L193.691 328.525C194.897 331.948 196.764 334.009 199.836 335.371C202.17 336.382 207.07 336.187 209.482 334.943C215.043 332.065 217.494 326.192 216.055 319.269C215.393 316.119 214.071 312.541 212.671 310.207C212.204 309.429 211.932 308.69 212.049 308.574C212.165 308.457 213.021 308.768 213.915 309.235C219.01 311.802 227.178 313.474 234.84 313.474C243.24 313.474 250.785 312.191 259.381 309.352C264.476 307.679 273.187 303.712 274.743 302.39C275.171 302.04 275.327 301.845 275.093 301.962C274.86 302.079 272.993 302.468 271.01 302.779C265.759 303.673 264.087 304.296 260.042 306.94C255.803 309.74 255.025 310.091 250.552 311.218C245.846 312.385 232.934 312.502 227.878 311.413C213.41 308.301 196.958 299.201 187.119 288.816C179.574 280.843 173.04 269.681 169.345 258.441C165.961 248.174 165.456 241.251 167.322 231.022C168.606 224.061 168.645 221.571 167.4 208.27C165.883 192.013 166.195 184.313 168.606 174.278C174.206 151.293 190.775 124.613 206.915 112.595C211.621 109.056 216.21 106.45 223.522 103.066C226.672 101.627 231.339 99.4105 233.906 98.2048C251.291 89.9207 260.936 88.7928 277.077 93.1488C281.938 94.4711 288.9 96.1435 291.545 96.6102C292.75 96.8047 292.828 96.7658 292.828 95.7546C292.789 92.7598 289.989 89.5707 285.283 87.2371C282.988 86.1092 282.366 85.6036 282.211 84.7869C282.016 83.9702 281.433 83.5035 279.294 82.5312C260.042 73.6637 235.851 75.8417 208.548 88.9095C199.953 93.0321 197.347 94.1989 193.458 95.7546C179.496 101.355 168.061 103.844 156.121 103.844C148.926 103.844 149.199 103.922 144.104 99.8772C140.37 96.8825 137.259 92.9932 136.053 89.8429L135.275 87.7038L136.286 86.8482C137.453 85.7981 138.425 85.7203 139.942 86.5371C141.07 87.1205 144.259 90.4652 144.259 91.0486C144.259 91.7098 145.387 91.3986 145.815 90.6597C146.982 88.4428 145.348 86.0315 141.459 84.0869C138.814 82.8034 135.936 81.9867 135.042 82.3367C134.769 82.4534 134.186 83.1923 133.797 83.9313C133.136 85.2147 133.058 85.2536 132.825 84.4758C132.669 84.0091 132.28 83.6201 131.93 83.6201C131.58 83.6201 131.425 83.8535 131.58 84.2035C131.697 84.5536 131.58 84.7869 131.23 84.7869C130.375 84.7869 130.53 85.6426 131.619 87.7816C132.164 88.7928 132.514 89.8429 132.397 90.1541C132.28 90.4263 132.825 91.4764 133.603 92.4876C134.342 93.4988 136.753 97.8159 138.892 102.094C143.404 111.078 144.998 113.528 147.76 116.056C151.338 119.246 154.838 119.673 160.127 117.534C162.578 116.601 162.616 116.562 164.017 117.262C167.05 118.701 169.85 119.44 173.04 119.673C180.818 120.179 187.041 117.029 197.464 107.306C210.065 95.5212 214.343 92.0987 218.31 90.4263C219.36 89.9985 219.788 89.5318 219.944 88.715C220.138 87.7816 220.566 87.5094 223.522 86.3815C227.956 84.748 233.206 83.4646 238.962 82.6089C245.729 81.5977 257.203 81.7144 263.387 82.8034C270.776 84.1257 277.193 86.6537 280.421 89.4929L281.744 90.6597L280.577 90.4263C269.57 88.0539 252.769 87.7427 243.629 89.6874C242.112 90.0374 238.534 90.3485 235.656 90.4263C224.922 90.7374 216.871 93.2266 208.548 98.8271C202.442 102.989 197.931 107.306 187.508 119.129C183.579 123.563 179.962 127.452 179.535 127.763C177.979 128.774 170.2 129.63 164.872 129.396C154.099 128.891 141.576 125.429 137.259 121.774L136.286 120.957L137.453 121.19C138.075 121.307 141.031 122.59 144.026 123.99C148.654 126.168 149.704 126.518 151.649 126.557C152.893 126.557 154.06 126.441 154.255 126.246C154.799 125.702 152.038 123.718 147.954 121.657C145.815 120.568 143.326 119.09 142.431 118.39C140.526 116.834 137.998 113.101 135.703 108.511C133.603 104.233 131.619 100.966 129.947 98.9049C127.652 96.0657 123.024 94.4322 121.157 95.7935C120.535 96.2213 120.457 96.7269 120.613 98.866L120.768 101.433L119.251 100.227C114.74 96.4935 112.367 95.4045 109.801 95.9101C108.011 96.2213 107.545 97.3881 107.895 100.538L108.167 102.872L107.195 101.977C105.756 100.616 103.85 96.1435 102.994 92.0987C102.489 89.804 102.139 86.1871 101.983 82.1811C101.322 63.8628 106.261 45.7001 113.301 40.294C116.918 37.5716 120.107 37.1826 128.897 38.3494C135.431 39.2439 142.704 39.2439 145.27 38.3883C147.448 37.6493 149.043 36.2103 149.704 34.4213C150.288 32.9045 149.821 29.6764 148.887 28.743C147.487 27.3429 145.776 27.9651 140.798 31.621C138.581 33.2545 138.114 33.449 136.208 33.449C133.797 33.449 132.514 32.8656 130.802 31.0376C128.974 29.1319 128.236 27.3429 128.002 24.4648C127.847 22.2091 127.924 21.7813 128.624 21.0812C129.791 19.9144 131.736 19.4866 137.647 19.0588C140.837 18.8254 143.054 18.4754 143.326 18.1643C143.559 17.9309 143.87 17.0364 143.987 16.2585L144.22 14.7806L142.198 14.1972C139.864 13.5361 133.33 12.836 129.325 12.836L126.563 12.7971L127.73 11.8248C128.352 11.3192 130.025 10.308 131.425 9.60793C133.719 8.48005 134.303 8.40227 137.453 8.40227C143.131 8.44116 145.426 9.60793 157.599 18.7865C167.361 26.1372 171.445 27.8874 178.446 27.5373C186.302 27.1484 188.169 24.1926 184.085 18.631L182.296 16.2196L183.424 16.4919C189.491 17.9698 195.364 24.4648 200.848 35.8992C202.209 38.7383 203.337 40.8385 203.376 40.6441C203.415 39.6717 201.237 33.7212 199.603 30.4542C194.819 20.5756 185.757 11.4359 175.373 6.06872C158.999 -2.44871 141.848 -1.982 127.73 7.35218C121.546 11.397 104.433 25.6705 102.255 28.5485C98.444 33.6045 94.7881 44.2999 93.0768 55.4232C92.2212 61.1792 92.1823 73.3137 93.0768 79.1086C95.527 95.5601 101.867 107.733 111.551 114.501C122.207 121.968 136.364 127.374 155.927 131.458C159.038 132.08 161.994 132.741 162.539 132.858C163.239 133.052 162.033 133.48 157.872 134.569C154.76 135.347 148.46 137.097 143.87 138.42C139.281 139.742 133.214 141.298 130.452 141.842L125.396 142.814L121.779 141.57C119.757 140.87 117.54 139.897 116.879 139.431C116.179 138.964 114.429 138.186 112.99 137.681C109.684 136.592 106.378 134.375 103.694 131.497C102.567 130.252 99.4941 126.052 96.8883 122.24C92.1823 115.317 88.1375 110.728 85.3761 109.289C84.3649 108.784 84.2483 108.784 83.5482 109.678C83.1593 110.223 82.2647 111.739 81.5647 113.101C80.6313 114.851 80.1257 115.434 79.6978 115.279C78.1033 114.578 74.8363 113.917 74.0585 114.112C73.2028 114.345 71.8805 116.562 70.9471 119.207C70.7137 119.868 70.2081 119.479 67.0967 116.251C52.3176 100.927 46.3282 77.2418 51.3453 53.8675C52.2009 49.8227 52.162 50.056 51.7342 50.3283C51.0342 50.795 50.1007 54.3731 49.5174 58.9235C48.8173 64.6796 48.2339 67.6743 47.845 67.6743C47.6894 67.6743 46.3282 66.6242 44.8503 65.3407C41.7778 62.6572 38.8608 61.0626 37.0718 61.0626C36.0606 61.0626 35.7495 61.2959 35.3605 62.2293C34.6216 64.0184 35.0883 67.402 36.6829 71.6413L38.083 75.375L35.7495 77.7474C32.5214 80.9755 31.6657 82.9201 31.7435 87.1205C31.8991 99.7216 39.9498 108.083 59.8238 116.251C64.4909 118.195 64.8021 118.351 68.3802 121.851C85.6095 138.497 108.712 147.598 128.508 145.498C133.719 144.953 137.92 143.981 144.065 141.959C149.004 140.325 153.049 139.314 162.15 137.292C165.261 136.592 169.578 135.464 171.756 134.764L175.723 133.519L174.829 134.725C173.467 136.514 172.845 137.875 171.173 142.775C170.317 145.226 169.228 148.065 168.761 149.076C167.828 151.06 167.206 151.487 159.233 155.766C146.865 162.416 142.704 168.367 143.909 177.818C144.22 180.307 144.181 180.773 143.559 181.629C142.548 182.951 140.253 183.457 135.353 183.379L131.23 183.301L131.114 181.357C131.036 179.723 131.152 179.179 131.93 178.284L132.864 177.195L133.564 178.245C134.342 179.49 135.508 179.607 136.092 178.556C136.714 177.351 136.559 176.301 135.547 175.134C134.769 174.239 134.303 174.045 132.825 174.045C131.425 174.045 130.841 174.278 129.986 175.095C129.052 176.028 128.897 176.573 128.78 178.945C128.469 184.468 130.53 190.03 133.914 192.558C136.831 194.775 138.814 195.241 145.27 195.241L150.871 195.241L150.638 197.108C148.849 212.159 143.442 225.966 134.925 237.323C126.563 248.446 113.223 257.702 102.178 259.997C96.5383 261.203 88.6431 260.386 82.9648 257.975C71.2971 253.074 63.752 240.94 63.752 227.094C63.752 219.238 66.5133 210.915 71.1804 204.653C73.2028 202.009 75.9642 200.22 80.5535 198.547C85.7651 196.68 90.3155 195.902 95.8382 195.864C100.311 195.825 100.622 195.864 103.189 197.108C108.206 199.481 112.873 205.353 115.362 212.548C116.334 215.349 116.412 216.204 116.451 220.91C116.451 225.811 116.373 226.316 115.401 228.378C111.706 236.273 103.694 238.256 97.5884 232.734C94.4381 229.894 93.2713 225.461 94.6714 221.844C95.2548 220.366 95.2548 220.366 94.5936 221.26C90.6266 226.666 92.649 232.85 99.3385 235.962C102.411 237.362 107.273 237.478 110.073 236.195C115.518 233.745 118.59 228.3 118.59 221.183C118.59 210.954 112.251 199.675 104.278 195.747L101.322 194.269L94.477 194.308C88.3709 194.308 87.2819 194.425 83.8205 195.358C78.3755 196.836 73.9418 199.092 71.4138 201.62C69.3136 203.798 65.2688 210.176 63.5575 214.065C61.3018 219.121 60.5239 222.699 60.485 227.911C60.485 231.839 60.6406 233.356 61.3407 235.806C63.0519 241.795 66.0077 246.501 71.1804 251.441C76.042 256.108 81.6425 259.492 88.4875 261.942L91.1711 262.914L89.032 262.681C85.3373 262.292 76.9365 260.658 73.2806 259.608C71.336 259.064 67.8357 257.664 65.5021 256.536C58.307 252.958 53.9122 248.679 50.5286 241.912C49.5174 239.89 48.1172 237.284 47.4561 236.117C46.756 234.95 44.8892 231.1 43.2946 227.6C38.8219 217.643 36.4495 213.91 33.6882 212.51C32.1713 211.732 29.4489 211.732 27.232 212.51C26.2986 212.86 24.7818 213.171 23.8484 213.21C22.3316 213.248 21.9816 213.054 19.998 211.265C12.3362 204.264 1.09633 209.554 0.0851328 220.638C-0.0704457 222.31 -0.0315357 222.855 0.35738 222.855C0.629628 222.855 2.45757 222.116 4.40218 221.221C7.51357 219.782 8.25255 219.588 10.6639 219.588C18.2479 219.627 27.1931 224.138 35.4772 232.15C39.0553 235.612 48.1561 245.412 53.1344 251.246C54.9234 253.308 61.5351 258.947 64.452 260.931C67.8357 263.225 72.6972 265.481 76.392 266.492C80.6702 267.659 89.4987 267.698 95.0215 266.648C98.4051 265.987 98.9496 265.753 99.4552 264.859C100.039 263.809 100.194 263.809 104.978 263.536C116.023 262.953 125.358 259.453 134.808 252.335C137.336 250.43 138.036 250.118 138.931 250.313C139.825 250.507 140.292 250.313 141.226 249.418L142.392 248.329L141.576 249.963C140.72 251.674 139.087 253.191 133.758 257.158C131.114 259.141 130.258 260.036 129.286 261.903C126.719 266.803 118.201 271.276 107.661 273.298C102.411 274.271 88.1764 274.271 82.2259 273.298C73.2806 271.782 62.6241 268.515 57.9959 265.792C57.0625 265.248 56.168 264.898 56.0513 265.053C55.8957 265.17 55.5068 266.025 55.1957 266.92L54.5734 268.553L49.3618 268.787C43.2168 269.059 39.4442 269.992 34.7772 272.287C16.2644 281.544 7.63028 306.085 17.1589 322.342C17.859 323.586 19.9592 326.075 21.826 327.942C24.5873 330.703 25.2485 331.559 25.2485 332.493C25.2485 333.465 25.6763 334.048 27.5432 335.565C31.5102 338.871 35.9828 341.049 42.1667 342.682C46.3282 343.771 56.6736 344.044 61.1462 343.227ZM33.2993 334.476C28.321 332.92 22.2149 327.864 19.1035 322.692C13.0752 312.657 14.1642 297.451 21.7093 286.327C28.5155 276.293 38.9386 270.693 50.723 270.693L54.3011 270.693L54.5345 274.504C54.6512 276.565 55.0401 279.132 55.3901 280.143C55.779 281.155 55.9735 282.088 55.8957 282.205C55.779 282.282 55.0401 282.088 54.1845 281.699C52.0065 280.766 45.9004 280.766 43.4502 281.699C40.1054 282.983 38.7831 285.783 40.1832 288.544C41.1166 290.333 43.9558 292.628 48.195 295C53.7178 298.073 53.4455 297.684 52.0454 299.706C49.1673 303.907 47.6505 308.885 48.3506 311.685C48.7395 313.28 50.6064 313.98 53.64 313.785C57.5292 313.513 60.135 311.918 65.8911 306.396C68.5357 303.868 70.7915 301.806 70.9471 301.806C71.1026 301.806 71.1415 303.245 71.0637 305.035C70.2859 316.974 59.396 330.237 47.0672 334.282C42.439 335.798 37.8108 335.876 33.2993 334.476ZM201.003 333.309C199.059 332.765 196.608 330.509 195.792 328.564C195.014 326.736 194.858 321.836 195.481 320.669C195.792 320.125 195.947 320.436 196.142 322.069C196.531 324.947 197.775 327.67 199.37 329.031C200.42 329.965 201.042 330.198 202.442 330.198C208.665 330.198 213.954 321.097 211.776 314.058C211.465 313.007 211.232 312.074 211.31 311.996C211.582 311.724 213.41 316.041 213.877 318.102C214.499 320.786 214.188 325.336 213.177 327.553C211.037 332.415 206.137 334.748 201.003 333.309ZM176.229 330.976C174.712 330.042 173.429 328.059 173.429 326.62C173.429 324.636 174.945 321.447 176.968 319.191C178.057 317.947 179.029 317.013 179.107 317.091C179.185 317.169 178.99 317.869 178.679 318.647C178.368 319.425 178.096 320.864 178.096 321.875C178.096 323.392 178.29 323.858 179.418 324.986C180.74 326.309 181.557 326.503 184.318 326.348C187.158 326.153 190.424 324.325 191.941 322.069C193.069 320.436 193.147 321.175 192.136 323.469C190.658 326.659 186.963 329.887 183.229 331.209C181.013 331.987 177.746 331.87 176.229 330.976ZM172.067 314.369C169.461 313.435 166.972 311.024 166.622 309.04C165.65 304.023 169.773 298.345 176.112 295.934C178.601 294.961 184.707 294.495 186.263 295.117C187.119 295.467 186.963 295.545 185.174 295.545C176.89 295.661 168.761 303.634 171.834 308.651C172.651 310.013 176.112 311.918 177.746 311.918C179.612 311.918 179.612 313.435 177.746 314.446C176.384 315.185 174.401 315.185 172.067 314.369ZM193.147 308.457C192.019 308.029 191.513 306.862 191.864 305.501C191.98 304.996 193.069 303.595 194.236 302.39C195.403 301.184 196.375 300.056 196.375 299.862C196.375 299.162 197.192 299.473 198.942 300.795C199.914 301.534 200.925 302.234 201.159 302.312C201.509 302.429 201.392 302.895 200.887 303.907C200.186 305.268 199.992 305.346 198.825 305.112C197.425 304.84 197.036 305.579 198.125 306.474C198.981 307.174 198.825 307.99 197.814 308.185C197.347 308.301 196.608 308.457 196.181 308.535C194.819 308.846 194.119 308.807 193.147 308.457ZM138.581 190.146C135.82 189.096 136.286 188.513 139.437 189.096C142.159 189.602 143.909 189.33 145.737 188.241C147.682 187.035 148.46 184.857 148.926 179.257C149.16 176.612 149.626 173.5 149.937 172.334C150.793 169.339 153.477 166.811 158.533 164.205C160.711 163.077 163.005 161.755 163.628 161.21C164.289 160.666 164.872 160.238 164.989 160.238C165.3 160.238 161.061 170.311 158.649 175.328C152.388 188.318 146.126 192.947 138.581 190.146Z" fill="#D1D1D1"/>
<path d="M90.7824 341.127C92.6881 340.777 93.5826 340.31 94.8661 338.949C95.6828 338.054 95.8384 337.549 95.8384 335.448C95.8384 332.104 94.9439 330.82 92.4158 330.665C90.2379 330.509 88.2933 331.442 86.232 333.582C83.4706 336.421 83.0039 339.415 85.1041 340.465C86.4653 341.166 88.8766 341.438 90.7824 341.127Z" fill="#D1D1D1"/>
<path d="M9.45835 322.653C10.6251 322.069 11.2863 321.33 11.9864 319.969C13.0364 317.869 12.9198 316.158 11.5585 314.446C10.7807 313.474 10.5862 313.396 8.64161 313.591C5.18018 313.941 3.81895 315.341 3.27446 319.036C3.00221 320.747 3.08 320.941 4.20788 321.992C5.80246 323.469 7.39705 323.664 9.45835 322.653Z" fill="#D1D1D1"/>
<path d="M100.622 319.464C101.944 318.569 102.645 316.858 102.645 314.641C102.645 312.93 102.489 312.463 101.478 311.452C100.389 310.363 100.117 310.285 98.3275 310.441C95.5661 310.713 94.3993 311.918 94.166 314.797C93.9326 317.675 94.2827 318.802 95.6439 319.503C97.1218 320.241 99.4942 320.241 100.622 319.464Z" fill="#D1D1D1"/>
<path d="M9.96382 302.973C13.0363 301.106 13.6586 295.7 11.0917 293.289C8.95262 291.267 5.02449 291.5 2.76873 293.795C1.60196 294.922 1.3686 295.467 1.21303 297.217C1.01857 299.823 2.10756 301.612 4.63557 302.895C6.73575 303.946 8.33034 303.984 9.96382 302.973Z" fill="#D1D1D1"/>
<path d="M229.823 283.177C232.973 282.71 238.029 281.349 242.268 279.754C253.119 275.749 261.948 268.592 265.992 260.58C267.587 257.352 267.781 256.147 266.226 258.947C262.609 265.559 256.23 271.081 247.285 275.321C226.361 285.316 201.937 283.06 192.136 270.226L190.619 268.203L192.525 267.581C195.131 266.687 196.258 265.559 196.57 263.459C196.881 261.397 197.308 261.319 200.109 262.72C201.314 263.303 203.609 265.286 206.332 268.048C211.115 272.909 213.527 274.543 218.271 276.137C222.9 277.693 227.1 278.238 233.089 277.965C240.129 277.693 246.352 275.787 250.435 272.637C251.369 271.937 251.369 271.898 250.669 271.12C249.58 269.954 247.207 268.942 242.035 267.581C237.018 266.259 234.217 264.936 234.451 264.042C234.528 263.731 234.684 262.681 234.762 261.708C234.956 260.075 234.879 259.842 233.867 259.141C230.484 256.769 225.233 256.263 215.238 257.43C206.448 258.441 200.459 258.48 197.659 257.508C195.714 256.847 195.558 256.847 195.014 257.469C194.586 257.936 193.497 258.208 191.202 258.364C187.585 258.597 186.107 259.103 185.602 260.308C185.252 261.047 185.096 260.853 183.813 258.597C176.812 246.074 173.39 231.489 173.351 213.91C173.351 195.202 174.868 188.941 183.774 171.284C186.224 166.383 188.324 162.338 188.402 162.261C188.48 162.183 188.013 163.738 187.391 165.761C181.09 185.752 179.807 203.953 183.93 214.61C185.874 219.705 188.908 223.516 193.069 226.161C194.236 226.9 195.286 227.522 195.403 227.522C195.792 227.522 195.597 220.327 195.014 212.976C194.664 208.893 194.508 205.353 194.586 205.081C194.703 204.809 195.403 204.575 196.181 204.575C199.72 204.575 201.276 201.97 201.198 196.019C201.159 192.13 200.653 190.38 196.997 182.523C195.597 179.49 194.158 175.912 193.847 174.551C192.641 169.456 193.264 162.416 195.947 151.021L197.036 146.237L196.181 146.237C195.714 146.237 195.092 146.47 194.819 146.781C194.586 147.093 194.003 147.404 193.536 147.481C192.875 147.559 192.486 148.22 191.669 150.515C190.074 154.988 188.324 158.566 183.541 167.239C176.384 180.112 173.779 186.102 172.34 192.947C171.484 196.836 171.445 197.575 171.367 211.187C171.251 228.728 171.484 231.489 173.817 241.057C178.173 258.83 187.352 272.015 199.681 278.199C206.915 281.855 212.321 283.138 221.266 283.333C224.805 283.41 228.656 283.333 229.823 283.177ZM189.997 263.381C188.48 261.164 188.674 260.853 191.008 261.747C193.38 262.642 194.275 263.536 193.614 264.353C192.719 265.403 191.086 264.936 189.997 263.381Z" fill="#D1D1D1"/>
<path d="M20.1925 281.699C22.9928 280.61 25.6375 276.332 25.6375 272.909C25.6375 270.109 24.6262 268.787 22.2538 268.476C19.9981 268.164 18.559 268.865 16.4977 271.159C14.7087 273.143 13.5808 275.904 13.5808 278.315C13.5808 280.182 15.7588 281.971 17.9757 281.932C18.8702 281.932 19.8814 281.816 20.1925 281.699Z" fill="#D1D1D1"/>
<path d="M37.6164 270.342C42.2446 268.748 44.2281 264.82 42.5168 260.581C40.9222 256.652 35.4773 257.119 31.5881 261.514C28.7489 264.742 28.5934 267.931 31.1214 270.109C32.5604 271.315 34.6217 271.393 37.6164 270.342Z" fill="#D1D1D1"/>
<path d="M212.515 254.163C213.799 253.891 216.016 253.23 217.455 252.685C225.272 249.846 231.223 243.507 231.962 237.245L232.234 235.106L231.223 237.128C229.784 240.201 227.411 243.429 224.883 245.879C222.666 248.057 218.505 250.857 217.494 250.857C217.144 250.857 216.988 250.196 216.988 248.641C216.988 244.401 214.771 242.573 210.726 243.429C208.276 243.973 204.543 245.412 200.575 247.396C196.958 249.224 196.608 249.263 196.881 247.863C197.192 246.113 196.531 245.101 193.692 243.312C191.202 241.679 189.802 240.201 190.308 239.695C190.425 239.579 191.086 239.851 191.786 240.318C195.053 242.379 196.258 242.846 197.62 242.457C198.825 242.107 198.903 241.99 199.02 240.084C199.175 237.245 197.814 235.767 193.73 234.328C186.263 231.645 185.057 230.828 183.93 227.483L183.229 225.422L182.607 227.522C179.846 236.856 186.535 249.652 194.197 249.691C195.636 249.691 195.675 249.73 195.092 250.391C194.042 251.519 194.275 252.413 195.792 253.035C199.759 254.669 207.693 255.213 212.515 254.163Z" fill="#D1D1D1"/>
<path d="M63.6354 249.963C63.052 248.952 61.1462 245.996 59.435 243.351C55.2735 236.973 52.3177 230.945 51.0731 226.161C49.673 220.794 49.5563 213.015 50.8398 207.92C54.5345 193.063 66.9412 182.173 84.5595 178.284C88.4098 177.467 98.2496 177.117 102.294 177.701C108.128 178.556 111.045 180.501 116.062 186.879C117.424 188.591 119.251 190.691 120.146 191.547L121.818 193.102L121.546 191.935C121.391 191.313 120.729 189.641 120.068 188.28C115.751 179.373 103.228 174.356 88.7209 175.717C85.9985 175.951 82.4982 176.495 80.9425 176.884C79.4257 177.273 78.1422 177.506 78.1422 177.351C78.1422 177.195 78.5311 176.767 78.9589 176.34C82.3037 173.345 84.5983 164.944 83.0426 161.288C82.187 159.266 81.098 158.566 78.6089 158.41C75.6142 158.177 74.2141 158.994 71.4527 162.611C70.2082 164.205 69.0414 165.528 68.8858 165.605C68.6914 165.644 68.458 164.322 68.3413 162.611C68.1469 159.11 67.0579 156.932 64.8799 155.61C60.9907 153.238 55.5068 154.988 53.4066 159.266C52.3954 161.366 52.0843 164.944 52.6677 167.317L52.9399 168.289L50.6453 167.55C45.6282 165.839 39.0165 167.005 37.5386 169.922C36.7607 171.4 36.7218 173.928 37.4608 175.367C38.7831 177.895 42.4779 180.268 47.9228 182.057C50.1786 182.796 50.5675 183.068 50.9175 184.157C51.1509 184.857 52.4732 187.191 53.8734 189.369L56.3625 193.258L54.9623 195.086C48.0784 204.148 46.8338 218.888 51.7343 232.85C54.4567 240.512 59.2794 247.94 63.4798 250.935L64.7243 251.83L63.6354 249.963ZM59.2405 186.335C55.3902 184.585 54.4956 180.034 57.6459 178.129C58.2682 177.74 58.9683 177.001 59.2405 176.495C59.5905 175.795 60.0572 175.562 61.4574 175.484C63.402 175.367 65.0355 176.301 65.4244 177.74C65.6966 178.712 65.1522 179.062 64.5299 178.323C64.2576 178.012 63.9076 177.74 63.7131 177.74C62.9742 177.74 63.402 178.595 64.9966 180.307L66.5912 182.057L65.7744 183.807C64.9188 185.596 63.0131 187.074 61.6129 187.074C61.1851 187.074 60.135 186.724 59.2405 186.335ZM48.0006 169.572C46.9116 169.183 46.3671 168.833 46.7561 168.794C47.5339 168.794 50.1397 169.806 50.1397 170.117C50.1397 170.428 50.1786 170.428 48.0006 169.572Z" fill="#D1D1D1"/>
<path d="M264.904 235.689C268.871 234.95 269.726 230.983 266.615 227.95C263.27 224.683 258.059 226.977 258.136 231.683C258.214 233.823 259.225 235.106 261.287 235.689C262.842 236.117 262.842 236.117 264.904 235.689Z" fill="#D1D1D1"/>
<path d="M295.356 230.867C296.873 230.167 298.04 228.844 298.662 227.055C299.129 225.772 299.129 225.577 298.234 224.488C297.729 223.866 296.99 222.777 296.601 222.077L295.901 220.794L292.789 220.988C290.028 221.144 289.561 221.299 288.511 222.31C285.983 224.683 285.555 227.055 287.267 229.117C289.095 231.295 292.673 232.072 295.356 230.867Z" fill="#D1D1D1"/>
<path d="M242.112 228.728C243.863 227.95 244.213 227.366 244.213 225.344C244.213 223.672 243.746 222.699 242.112 220.988C240.518 219.277 239.118 218.577 237.29 218.577C235.423 218.577 234.101 219.549 233.167 221.61L232.467 223.166L234.217 225.888C235.19 227.405 236.356 228.805 236.784 229.039C237.951 229.661 240.323 229.544 242.112 228.728Z" fill="#D1D1D1"/>
<path d="M276.299 223.049C286.606 221.377 296.484 217.566 304.885 212.082C309.396 209.087 315.425 202.942 317.875 198.781C324.37 187.657 326.587 175.406 327.248 146.431C327.909 116.368 330.359 103.572 337.593 91.7876L338.41 90.4263L337.593 91.3986C335.843 93.4599 333.199 98.0103 331.682 101.705C327.598 111.506 325.887 124.107 325.887 145.07C325.887 163.7 324.448 178.829 321.92 186.685C316.903 202.398 300.957 214.96 280.694 219.121C269.843 221.338 257.708 220.755 248.802 217.566C236.512 213.132 228.189 204.731 224.339 192.908C223.328 189.835 223.25 189.719 223.25 191.197C223.211 193.452 224.494 198.236 225.972 201.114C231.067 211.343 242.463 219.666 255.492 222.699C259.186 223.555 271.788 223.788 276.299 223.049Z" fill="#D1D1D1"/>
<path d="M319.508 218.966C320.87 218.421 322.736 216.282 323.164 214.765C323.359 213.987 323.553 212.237 323.553 210.954L323.553 208.543L321.881 207.881C320.014 207.104 317.408 207.026 316.203 207.648C313.986 208.854 313.286 213.91 314.958 216.904C316.203 219.043 317.642 219.744 319.508 218.966Z" fill="#D1D1D1"/>
<path d="M221.616 215.232C223.522 213.637 223.677 213.054 222.822 211.343C222.433 210.487 221.694 208.97 221.227 207.959C219.827 204.848 217.027 204.109 214.849 206.326C212.476 208.659 213.488 213.015 216.949 215.349C218.66 216.515 220.138 216.477 221.616 215.232Z" fill="#D1D1D1"/>
<path d="M265.292 209.554C266.343 207.959 267.82 204.809 268.443 202.825C270.037 198.003 269.998 190.069 268.365 185.285C267.976 184.118 267.82 183.185 268.015 183.185C268.559 183.185 271.554 184.779 276.96 187.968C282.483 191.197 285.517 192.247 289.522 192.285C292.478 192.285 295.94 191.508 295.94 190.808C295.901 189.135 294.617 184.74 293.567 182.796C291.623 179.179 286.411 174.239 280.305 170.311C279.488 169.806 278.905 169.222 278.944 168.989C279.021 168.794 281.044 167.433 283.455 165.994C289.056 162.649 291.234 161.055 293.373 158.644C295.395 156.388 297.223 152.926 297.029 151.643C296.873 150.476 295.862 150.204 291.428 150.165C285.089 150.087 278.477 152.304 270.31 157.243C268.287 158.488 266.576 159.421 266.498 159.344C266.42 159.266 266.537 157.905 266.77 156.349C268.326 145.459 261.131 135.619 251.175 135.036C249.541 134.958 247.324 135.075 246.274 135.308L244.329 135.775L246.935 138.381C251.136 142.62 252.691 147.131 252.264 153.588C251.525 163.7 244.952 172.8 236.512 175.406C233.79 176.262 228.85 176.417 226.05 175.795C217.377 173.773 211.699 165.566 210.571 153.393C209.832 145.381 212.943 134.219 217.416 129.008C218.855 127.335 222.316 124.574 222.589 124.924C222.666 124.963 223.094 126.752 223.561 128.852C224.572 133.247 226.595 137.603 228.345 139.042C229.862 140.325 229.978 140.17 230.795 135.114C232.934 121.657 243.746 113.062 260.82 111.195C273.771 109.795 298.157 113.645 304.69 118.157C306.557 119.44 307.996 121.501 307.996 122.824L307.996 123.796L307.024 122.901C305.818 121.774 304.068 121.735 301.929 122.824C299.673 123.99 298.934 124.963 299.246 126.363C300.335 131.38 307.53 132.236 311.38 127.841C314.414 124.379 313.675 119.051 309.513 114.54C304.029 108.589 286.255 100.655 271.476 97.5436C267.859 96.7658 266.226 96.6491 258.214 96.6491C250.241 96.688 248.569 96.7658 245.146 97.5436C239.429 98.7882 235.656 100.111 230.406 102.716C216.638 109.522 205.982 121.346 201.47 134.764C196.997 148.104 199.059 161.366 207.576 174.162C211.232 179.684 215.588 182.796 222.433 184.779C226.128 185.829 236.123 186.257 240.635 185.518C243.163 185.129 249.502 183.224 251.641 182.251C252.186 182.018 252.302 182.524 252.536 186.374C253.119 196.097 255.025 202.047 258.914 206.248C260.548 207.998 263.776 210.409 264.476 210.409C264.631 210.409 264.981 210.02 265.292 209.554ZM261.287 196.797C259.848 196.019 259.031 193.608 258.409 188.202C258.02 184.857 257.553 182.485 257.086 181.59L256.347 180.151L259.381 175.562C266.226 165.216 271.71 160.588 279.994 158.332C283.222 157.438 283.883 157.36 283.883 157.905C283.883 158.76 280.966 160.938 277.427 162.766C273.032 165.022 271.204 166.655 270.815 168.6C270.271 171.478 271.593 172.956 277.66 176.379C281.433 178.518 284.466 181.201 284.155 182.135C284.078 182.407 282.989 182.64 281.549 182.718C279.449 182.835 278.749 182.679 276.727 181.668C275.405 181.007 272.954 179.257 271.243 177.74C268.209 175.017 268.093 174.978 266.381 175.173C265.409 175.251 264.126 175.523 263.503 175.756C262.57 176.145 262.453 176.34 262.687 177.273C263.231 179.529 263.348 188.552 262.881 192.83C262.609 195.202 262.337 197.186 262.22 197.186C262.142 197.186 261.714 196.991 261.287 196.797ZM304.185 125.935C303.407 125.157 303.64 124.924 305.235 124.768C306.207 124.691 306.674 124.768 306.557 125.041C305.741 126.48 305.002 126.752 304.185 125.935Z" fill="#D1D1D1"/>
<path d="M335.454 194.697C336.738 194.152 337.943 192.091 337.943 190.496C337.904 189.057 336.543 186.413 335.376 185.674C333.782 184.624 331.565 184.74 330.32 185.946C328.259 188.007 328.337 192.363 330.437 194.308C331.604 195.358 333.549 195.514 335.454 194.697Z" fill="#D1D1D1"/>
<path d="M212.788 194.619C214.81 193.569 215.199 191.235 213.916 188.396C212.632 185.596 209.871 184.313 207.615 185.518C205.865 186.491 205.204 189.757 206.254 192.285C207.343 194.93 210.299 195.98 212.788 194.619Z" fill="#D1D1D1"/>
<path d="M342.027 171.75C342.649 171.439 343.777 170.7 344.516 170.078L345.8 168.989L345.294 166.694C344.788 164.594 344.594 164.283 343.038 163.272C339.188 160.86 335.999 162.533 335.999 167.005C335.999 171.323 338.527 173.306 342.027 171.75Z" fill="#D1D1D1"/>
<path d="M346.694 150.009C347.628 149.232 347.822 148.726 347.978 146.704C348.133 144.526 348.094 144.331 347.122 143.709C346.539 143.32 345.839 142.425 345.527 141.725L344.983 140.403L342.027 140.403C337.127 140.403 335.532 141.881 336.971 145.109C338.177 147.715 341.327 150.165 344.205 150.709C345.333 150.904 345.8 150.787 346.694 150.009Z" fill="#D1D1D1"/>
<path d="M347.2 131.38C348.833 130.952 350 129.085 350 126.907C350 125.624 349.844 125.235 349.378 125.235C349.028 125.235 347.939 124.379 346.889 123.29C345.333 121.696 344.788 121.346 343.661 121.346C341.133 121.346 338.605 124.574 339.343 126.868C340.316 130.019 344.127 132.197 347.2 131.38Z" fill="#D1D1D1"/>
</svg>
